<?xml version="1.0" encoding="utf-8" standalone="no"?>
<!DOCTYPE svg PUBLIC "-//W3C//DTD SVG 1.1//EN"
  "http://www.w3.org/Graphics/SVG/1.1/DTD/svg11.dtd">
<svg xmlns:xlink="http://www.w3.org/1999/xlink" width="402.073437pt" height="213.165312pt" viewBox="0 0 402.073437 213.165312" xmlns="http://www.w3.org/2000/svg" version="1.1">
 <metadata>
  <rdf:RDF xmlns:dc="http://purl.org/dc/elements/1.1/" xmlns:cc="http://creativecommons.org/ns#" xmlns:rdf="http://www.w3.org/1999/02/22-rdf-syntax-ns#">
   <cc:Work>
    <dc:type rdf:resource="http://purl.org/dc/dcmitype/StillImage"/>
    <dc:date>2024-10-10T09:49:22.759184</dc:date>
    <dc:format>image/svg+xml</dc:format>
    <dc:creator>
     <cc:Agent>
      <dc:title>Matplotlib v3.9.2, https://matplotlib.org/</dc:title>
     </cc:Agent>
    </dc:creator>
   </cc:Work>
  </rdf:RDF>
 </metadata>
 <defs>
  <style type="text/css">*{stroke-linejoin: round; stroke-linecap: butt}</style>
 </defs>
 <g id="figure_1">
  <g id="patch_1">
   <path d="M 0 213.165312 
L 402.073437 213.165312 
L 402.073437 0 
L 0 0 
z
" style="fill: #ffffff"/>
  </g>
  <g id="axes_1">
   <g id="patch_2">
    <path d="M 46.4625 173.52 
L 325.4625 173.52 
L 325.4625 7.2 
L 46.4625 7.2 
z
" style="fill: #ffffff"/>
   </g>
   <g id="matplotlib.axis_1">
    <g id="xtick_1">
     <g id="line2d_1">
      <defs>
       <path id="m3bacc8c19f" d="M 0 0 
L 0 3.5 
" style="stroke: #262626; stroke-width: 0.8"/>
      </defs>
      <g>
       <use xlink:href="#m3bacc8c19f" x="59.144318" y="173.52" style="fill: #262626; stroke: #262626; stroke-width: 0.8"/>
      </g>
     </g>
     <g id="text_1">
      <!-- $\mathdefault{10^{-5}}$ -->
      <g style="fill: #262626" transform="translate(49.244318 190.7325) scale(0.1 -0.1)">
       <defs>
        <path id="ArialMT-31" d="M 2384 0 
L 1822 0 
L 1822 3584 
Q 1619 3391 1289 3197 
Q 959 3003 697 2906 
L 697 3450 
Q 1169 3672 1522 3987 
Q 1875 4303 2022 4600 
L 2384 4600 
L 2384 0 
z
" transform="scale(0.015625)"/>
        <path id="ArialMT-30" d="M 266 2259 
Q 266 3072 433 3567 
Q 600 4063 929 4331 
Q 1259 4600 1759 4600 
Q 2128 4600 2406 4451 
Q 2684 4303 2865 4023 
Q 3047 3744 3150 3342 
Q 3253 2941 3253 2259 
Q 3253 1453 3087 958 
Q 2922 463 2592 192 
Q 2263 -78 1759 -78 
Q 1097 -78 719 397 
Q 266 969 266 2259 
z
M 844 2259 
Q 844 1131 1108 757 
Q 1372 384 1759 384 
Q 2147 384 2411 759 
Q 2675 1134 2675 2259 
Q 2675 3391 2411 3762 
Q 2147 4134 1753 4134 
Q 1366 4134 1134 3806 
Q 844 3388 844 2259 
z
" transform="scale(0.015625)"/>
        <path id="ArialMT-2212" d="M 3381 1997 
L 356 1997 
L 356 2522 
L 3381 2522 
L 3381 1997 
z
" transform="scale(0.015625)"/>
        <path id="ArialMT-35" d="M 266 1200 
L 856 1250 
Q 922 819 1161 601 
Q 1400 384 1738 384 
Q 2144 384 2425 690 
Q 2706 997 2706 1503 
Q 2706 1984 2436 2262 
Q 2166 2541 1728 2541 
Q 1456 2541 1237 2417 
Q 1019 2294 894 2097 
L 366 2166 
L 809 4519 
L 3088 4519 
L 3088 3981 
L 1259 3981 
L 1013 2750 
Q 1425 3038 1878 3038 
Q 2478 3038 2890 2622 
Q 3303 2206 3303 1553 
Q 3303 931 2941 478 
Q 2500 -78 1738 -78 
Q 1113 -78 717 272 
Q 322 622 266 1200 
z
" transform="scale(0.015625)"/>
       </defs>
       <use xlink:href="#ArialMT-31" transform="translate(0 0.879688)"/>
       <use xlink:href="#ArialMT-30" transform="translate(55.615234 0.879688)"/>
       <use xlink:href="#ArialMT-2212" transform="translate(112.972813 70.573438) scale(0.7)"/>
       <use xlink:href="#ArialMT-35" transform="translate(153.851719 70.573438) scale(0.7)"/>
      </g>
     </g>
    </g>
    <g id="xtick_2">
     <g id="line2d_2">
      <g>
       <use xlink:href="#m3bacc8c19f" x="109.871591" y="173.52" style="fill: #262626; stroke: #262626; stroke-width: 0.8"/>
      </g>
     </g>
     <g id="text_2">
      <!-- $\mathdefault{10^{-4}}$ -->
      <g style="fill: #262626" transform="translate(99.971591 190.7325) scale(0.1 -0.1)">
       <defs>
        <path id="ArialMT-34" d="M 2069 0 
L 2069 1097 
L 81 1097 
L 81 1613 
L 2172 4581 
L 2631 4581 
L 2631 1613 
L 3250 1613 
L 3250 1097 
L 2631 1097 
L 2631 0 
L 2069 0 
z
M 2069 1613 
L 2069 3678 
L 634 1613 
L 2069 1613 
z
" transform="scale(0.015625)"/>
       </defs>
       <use xlink:href="#ArialMT-31" transform="translate(0 0.201563)"/>
       <use xlink:href="#ArialMT-30" transform="translate(55.615234 0.201563)"/>
       <use xlink:href="#ArialMT-2212" transform="translate(112.972813 69.895313) scale(0.7)"/>
       <use xlink:href="#ArialMT-34" transform="translate(153.851719 69.895313) scale(0.7)"/>
      </g>
     </g>
    </g>
    <g id="xtick_3">
     <g id="line2d_3">
      <g>
       <use xlink:href="#m3bacc8c19f" x="160.598864" y="173.52" style="fill: #262626; stroke: #262626; stroke-width: 0.8"/>
      </g>
     </g>
     <g id="text_3">
      <!-- $\mathdefault{10^{-3}}$ -->
      <g style="fill: #262626" transform="translate(150.698864 190.8325) scale(0.1 -0.1)">
       <defs>
        <path id="ArialMT-33" d="M 269 1209 
L 831 1284 
Q 928 806 1161 595 
Q 1394 384 1728 384 
Q 2125 384 2398 659 
Q 2672 934 2672 1341 
Q 2672 1728 2419 1979 
Q 2166 2231 1775 2231 
Q 1616 2231 1378 2169 
L 1441 2663 
Q 1497 2656 1531 2656 
Q 1891 2656 2178 2843 
Q 2466 3031 2466 3422 
Q 2466 3731 2256 3934 
Q 2047 4138 1716 4138 
Q 1388 4138 1169 3931 
Q 950 3725 888 3313 
L 325 3413 
Q 428 3978 793 4289 
Q 1159 4600 1703 4600 
Q 2078 4600 2393 4439 
Q 2709 4278 2876 4000 
Q 3044 3722 3044 3409 
Q 3044 3113 2884 2869 
Q 2725 2625 2413 2481 
Q 2819 2388 3044 2092 
Q 3269 1797 3269 1353 
Q 3269 753 2831 336 
Q 2394 -81 1725 -81 
Q 1122 -81 723 278 
Q 325 638 269 1209 
z
" transform="scale(0.015625)"/>
       </defs>
       <use xlink:href="#ArialMT-31" transform="translate(0 0.99375)"/>
       <use xlink:href="#ArialMT-30" transform="translate(55.615234 0.99375)"/>
       <use xlink:href="#ArialMT-2212" transform="translate(112.972813 70.6875) scale(0.7)"/>
       <use xlink:href="#ArialMT-33" transform="translate(153.851719 70.6875) scale(0.7)"/>
      </g>
     </g>
    </g>
    <g id="xtick_4">
     <g id="line2d_4">
      <g>
       <use xlink:href="#m3bacc8c19f" x="211.326136" y="173.52" style="fill: #262626; stroke: #262626; stroke-width: 0.8"/>
      </g>
     </g>
     <g id="text_4">
      <!-- $\mathdefault{10^{-2}}$ -->
      <g style="fill: #262626" transform="translate(201.426136 190.8325) scale(0.1 -0.1)">
       <defs>
        <path id="ArialMT-32" d="M 3222 541 
L 3222 0 
L 194 0 
Q 188 203 259 391 
Q 375 700 629 1000 
Q 884 1300 1366 1694 
Q 2113 2306 2375 2664 
Q 2638 3022 2638 3341 
Q 2638 3675 2398 3904 
Q 2159 4134 1775 4134 
Q 1369 4134 1125 3890 
Q 881 3647 878 3216 
L 300 3275 
Q 359 3922 746 4261 
Q 1134 4600 1788 4600 
Q 2447 4600 2831 4234 
Q 3216 3869 3216 3328 
Q 3216 3053 3103 2787 
Q 2991 2522 2730 2228 
Q 2469 1934 1863 1422 
Q 1356 997 1212 845 
Q 1069 694 975 541 
L 3222 541 
z
" transform="scale(0.015625)"/>
       </defs>
       <use xlink:href="#ArialMT-31" transform="translate(0 0.99375)"/>
       <use xlink:href="#ArialMT-30" transform="translate(55.615234 0.99375)"/>
       <use xlink:href="#ArialMT-2212" transform="translate(112.972813 70.6875) scale(0.7)"/>
       <use xlink:href="#ArialMT-32" transform="translate(153.851719 70.6875) scale(0.7)"/>
      </g>
     </g>
    </g>
    <g id="xtick_5">
     <g id="line2d_5">
      <g>
       <use xlink:href="#m3bacc8c19f" x="262.053409" y="173.52" style="fill: #262626; stroke: #262626; stroke-width: 0.8"/>
      </g>
     </g>
     <g id="text_5">
      <!-- $\mathdefault{10^{-1}}$ -->
      <g style="fill: #262626" transform="translate(252.153409 190.8325) scale(0.1 -0.1)">
       <use xlink:href="#ArialMT-31" transform="translate(0 0.99375)"/>
       <use xlink:href="#ArialMT-30" transform="translate(55.615234 0.99375)"/>
       <use xlink:href="#ArialMT-2212" transform="translate(112.972813 70.6875) scale(0.7)"/>
       <use xlink:href="#ArialMT-31" transform="translate(153.851719 70.6875) scale(0.7)"/>
      </g>
     </g>
    </g>
    <g id="xtick_6">
     <g id="line2d_6">
      <g>
       <use xlink:href="#m3bacc8c19f" x="312.780682" y="173.52" style="fill: #262626; stroke: #262626; stroke-width: 0.8"/>
      </g>
     </g>
     <g id="text_6">
      <!-- $\mathdefault{10^{0}}$ -->
      <g style="fill: #262626" transform="translate(304.930682 190.8325) scale(0.1 -0.1)">
       <use xlink:href="#ArialMT-31" transform="translate(0 0.99375)"/>
       <use xlink:href="#ArialMT-30" transform="translate(55.615234 0.99375)"/>
       <use xlink:href="#ArialMT-30" transform="translate(112.972813 70.6875) scale(0.7)"/>
      </g>
     </g>
    </g>
    <g id="xtick_7">
     <g id="line2d_7">
      <defs>
       <path id="m26aa002ef2" d="M 0 0 
L 0 2 
" style="stroke: #262626; stroke-width: 0.6"/>
      </defs>
      <g>
       <use xlink:href="#m26aa002ef2" x="47.890536" y="173.52" style="fill: #262626; stroke: #262626; stroke-width: 0.6"/>
      </g>
     </g>
    </g>
    <g id="xtick_8">
     <g id="line2d_8">
      <g>
       <use xlink:href="#m26aa002ef2" x="51.286564" y="173.52" style="fill: #262626; stroke: #262626; stroke-width: 0.6"/>
      </g>
     </g>
    </g>
    <g id="xtick_9">
     <g id="line2d_9">
      <g>
       <use xlink:href="#m26aa002ef2" x="54.228338" y="173.52" style="fill: #262626; stroke: #262626; stroke-width: 0.6"/>
      </g>
     </g>
    </g>
    <g id="xtick_10">
     <g id="line2d_10">
      <g>
       <use xlink:href="#m26aa002ef2" x="56.823165" y="173.52" style="fill: #262626; stroke: #262626; stroke-width: 0.6"/>
      </g>
     </g>
    </g>
    <g id="xtick_11">
     <g id="line2d_11">
      <g>
       <use xlink:href="#m26aa002ef2" x="74.414749" y="173.52" style="fill: #262626; stroke: #262626; stroke-width: 0.6"/>
      </g>
     </g>
    </g>
    <g id="xtick_12">
     <g id="line2d_12">
      <g>
       <use xlink:href="#m26aa002ef2" x="83.347378" y="173.52" style="fill: #262626; stroke: #262626; stroke-width: 0.6"/>
      </g>
     </g>
    </g>
    <g id="xtick_13">
     <g id="line2d_13">
      <g>
       <use xlink:href="#m26aa002ef2" x="89.68518" y="173.52" style="fill: #262626; stroke: #262626; stroke-width: 0.6"/>
      </g>
     </g>
    </g>
    <g id="xtick_14">
     <g id="line2d_14">
      <g>
       <use xlink:href="#m26aa002ef2" x="94.60116" y="173.52" style="fill: #262626; stroke: #262626; stroke-width: 0.6"/>
      </g>
     </g>
    </g>
    <g id="xtick_15">
     <g id="line2d_15">
      <g>
       <use xlink:href="#m26aa002ef2" x="98.617809" y="173.52" style="fill: #262626; stroke: #262626; stroke-width: 0.6"/>
      </g>
     </g>
    </g>
    <g id="xtick_16">
     <g id="line2d_16">
      <g>
       <use xlink:href="#m26aa002ef2" x="102.013837" y="173.52" style="fill: #262626; stroke: #262626; stroke-width: 0.6"/>
      </g>
     </g>
    </g>
    <g id="xtick_17">
     <g id="line2d_17">
      <g>
       <use xlink:href="#m26aa002ef2" x="104.95561" y="173.52" style="fill: #262626; stroke: #262626; stroke-width: 0.6"/>
      </g>
     </g>
    </g>
    <g id="xtick_18">
     <g id="line2d_18">
      <g>
       <use xlink:href="#m26aa002ef2" x="107.550438" y="173.52" style="fill: #262626; stroke: #262626; stroke-width: 0.6"/>
      </g>
     </g>
    </g>
    <g id="xtick_19">
     <g id="line2d_19">
      <g>
       <use xlink:href="#m26aa002ef2" x="125.142022" y="173.52" style="fill: #262626; stroke: #262626; stroke-width: 0.6"/>
      </g>
     </g>
    </g>
    <g id="xtick_20">
     <g id="line2d_20">
      <g>
       <use xlink:href="#m26aa002ef2" x="134.074651" y="173.52" style="fill: #262626; stroke: #262626; stroke-width: 0.6"/>
      </g>
     </g>
    </g>
    <g id="xtick_21">
     <g id="line2d_21">
      <g>
       <use xlink:href="#m26aa002ef2" x="140.412452" y="173.52" style="fill: #262626; stroke: #262626; stroke-width: 0.6"/>
      </g>
     </g>
    </g>
    <g id="xtick_22">
     <g id="line2d_22">
      <g>
       <use xlink:href="#m26aa002ef2" x="145.328433" y="173.52" style="fill: #262626; stroke: #262626; stroke-width: 0.6"/>
      </g>
     </g>
    </g>
    <g id="xtick_23">
     <g id="line2d_23">
      <g>
       <use xlink:href="#m26aa002ef2" x="149.345082" y="173.52" style="fill: #262626; stroke: #262626; stroke-width: 0.6"/>
      </g>
     </g>
    </g>
    <g id="xtick_24">
     <g id="line2d_24">
      <g>
       <use xlink:href="#m26aa002ef2" x="152.74111" y="173.52" style="fill: #262626; stroke: #262626; stroke-width: 0.6"/>
      </g>
     </g>
    </g>
    <g id="xtick_25">
     <g id="line2d_25">
      <g>
       <use xlink:href="#m26aa002ef2" x="155.682883" y="173.52" style="fill: #262626; stroke: #262626; stroke-width: 0.6"/>
      </g>
     </g>
    </g>
    <g id="xtick_26">
     <g id="line2d_26">
      <g>
       <use xlink:href="#m26aa002ef2" x="158.277711" y="173.52" style="fill: #262626; stroke: #262626; stroke-width: 0.6"/>
      </g>
     </g>
    </g>
    <g id="xtick_27">
     <g id="line2d_27">
      <g>
       <use xlink:href="#m26aa002ef2" x="175.869294" y="173.52" style="fill: #262626; stroke: #262626; stroke-width: 0.6"/>
      </g>
     </g>
    </g>
    <g id="xtick_28">
     <g id="line2d_28">
      <g>
       <use xlink:href="#m26aa002ef2" x="184.801924" y="173.52" style="fill: #262626; stroke: #262626; stroke-width: 0.6"/>
      </g>
     </g>
    </g>
    <g id="xtick_29">
     <g id="line2d_29">
      <g>
       <use xlink:href="#m26aa002ef2" x="191.139725" y="173.52" style="fill: #262626; stroke: #262626; stroke-width: 0.6"/>
      </g>
     </g>
    </g>
    <g id="xtick_30">
     <g id="line2d_30">
      <g>
       <use xlink:href="#m26aa002ef2" x="196.055706" y="173.52" style="fill: #262626; stroke: #262626; stroke-width: 0.6"/>
      </g>
     </g>
    </g>
    <g id="xtick_31">
     <g id="line2d_31">
      <g>
       <use xlink:href="#m26aa002ef2" x="200.072354" y="173.52" style="fill: #262626; stroke: #262626; stroke-width: 0.6"/>
      </g>
     </g>
    </g>
    <g id="xtick_32">
     <g id="line2d_32">
      <g>
       <use xlink:href="#m26aa002ef2" x="203.468382" y="173.52" style="fill: #262626; stroke: #262626; stroke-width: 0.6"/>
      </g>
     </g>
    </g>
    <g id="xtick_33">
     <g id="line2d_33">
      <g>
       <use xlink:href="#m26aa002ef2" x="206.410156" y="173.52" style="fill: #262626; stroke: #262626; stroke-width: 0.6"/>
      </g>
     </g>
    </g>
    <g id="xtick_34">
     <g id="line2d_34">
      <g>
       <use xlink:href="#m26aa002ef2" x="209.004984" y="173.52" style="fill: #262626; stroke: #262626; stroke-width: 0.6"/>
      </g>
     </g>
    </g>
    <g id="xtick_35">
     <g id="line2d_35">
      <g>
       <use xlink:href="#m26aa002ef2" x="226.596567" y="173.52" style="fill: #262626; stroke: #262626; stroke-width: 0.6"/>
      </g>
     </g>
    </g>
    <g id="xtick_36">
     <g id="line2d_36">
      <g>
       <use xlink:href="#m26aa002ef2" x="235.529196" y="173.52" style="fill: #262626; stroke: #262626; stroke-width: 0.6"/>
      </g>
     </g>
    </g>
    <g id="xtick_37">
     <g id="line2d_37">
      <g>
       <use xlink:href="#m26aa002ef2" x="241.866998" y="173.52" style="fill: #262626; stroke: #262626; stroke-width: 0.6"/>
      </g>
     </g>
    </g>
    <g id="xtick_38">
     <g id="line2d_38">
      <g>
       <use xlink:href="#m26aa002ef2" x="246.782978" y="173.52" style="fill: #262626; stroke: #262626; stroke-width: 0.6"/>
      </g>
     </g>
    </g>
    <g id="xtick_39">
     <g id="line2d_39">
      <g>
       <use xlink:href="#m26aa002ef2" x="250.799627" y="173.52" style="fill: #262626; stroke: #262626; stroke-width: 0.6"/>
      </g>
     </g>
    </g>
    <g id="xtick_40">
     <g id="line2d_40">
      <g>
       <use xlink:href="#m26aa002ef2" x="254.195655" y="173.52" style="fill: #262626; stroke: #262626; stroke-width: 0.6"/>
      </g>
     </g>
    </g>
    <g id="xtick_41">
     <g id="line2d_41">
      <g>
       <use xlink:href="#m26aa002ef2" x="257.137428" y="173.52" style="fill: #262626; stroke: #262626; stroke-width: 0.6"/>
      </g>
     </g>
    </g>
    <g id="xtick_42">
     <g id="line2d_42">
      <g>
       <use xlink:href="#m26aa002ef2" x="259.732256" y="173.52" style="fill: #262626; stroke: #262626; stroke-width: 0.6"/>
      </g>
     </g>
    </g>
    <g id="xtick_43">
     <g id="line2d_43">
      <g>
       <use xlink:href="#m26aa002ef2" x="277.32384" y="173.52" style="fill: #262626; stroke: #262626; stroke-width: 0.6"/>
      </g>
     </g>
    </g>
    <g id="xtick_44">
     <g id="line2d_44">
      <g>
       <use xlink:href="#m26aa002ef2" x="286.256469" y="173.52" style="fill: #262626; stroke: #262626; stroke-width: 0.6"/>
      </g>
     </g>
    </g>
    <g id="xtick_45">
     <g id="line2d_45">
      <g>
       <use xlink:href="#m26aa002ef2" x="292.59427" y="173.52" style="fill: #262626; stroke: #262626; stroke-width: 0.6"/>
      </g>
     </g>
    </g>
    <g id="xtick_46">
     <g id="line2d_46">
      <g>
       <use xlink:href="#m26aa002ef2" x="297.510251" y="173.52" style="fill: #262626; stroke: #262626; stroke-width: 0.6"/>
      </g>
     </g>
    </g>
    <g id="xtick_47">
     <g id="line2d_47">
      <g>
       <use xlink:href="#m26aa002ef2" x="301.5269" y="173.52" style="fill: #262626; stroke: #262626; stroke-width: 0.6"/>
      </g>
     </g>
    </g>
    <g id="xtick_48">
     <g id="line2d_48">
      <g>
       <use xlink:href="#m26aa002ef2" x="304.922928" y="173.52" style="fill: #262626; stroke: #262626; stroke-width: 0.6"/>
      </g>
     </g>
    </g>
    <g id="xtick_49">
     <g id="line2d_49">
      <g>
       <use xlink:href="#m26aa002ef2" x="307.864701" y="173.52" style="fill: #262626; stroke: #262626; stroke-width: 0.6"/>
      </g>
     </g>
    </g>
    <g id="xtick_50">
     <g id="line2d_50">
      <g>
       <use xlink:href="#m26aa002ef2" x="310.459529" y="173.52" style="fill: #262626; stroke: #262626; stroke-width: 0.6"/>
      </g>
     </g>
    </g>
    <g id="text_7">
     <!-- $X$ -->
     <g style="fill: #262626" transform="translate(182.5125 203.977812) scale(0.1 -0.1)">
      <defs>
       <path id="DejaVuSans-Oblique-58" d="M 878 4666 
L 1516 4666 
L 2316 2981 
L 3763 4666 
L 4500 4666 
L 2578 2438 
L 3738 0 
L 3103 0 
L 2163 1966 
L 459 0 
L -275 0 
L 1906 2509 
L 878 4666 
z
" transform="scale(0.015625)"/>
      </defs>
      <use xlink:href="#DejaVuSans-Oblique-58" transform="translate(0 0.09375)"/>
     </g>
    </g>
   </g>
   <g id="matplotlib.axis_2">
    <g id="ytick_1">
     <g id="line2d_51">
      <defs>
       <path id="m280e5ce1d7" d="M 0 0 
L -3.5 0 
" style="stroke: #262626; stroke-width: 0.8"/>
      </defs>
      <g>
       <use xlink:href="#m280e5ce1d7" x="46.4625" y="172.356782" style="fill: #262626; stroke: #262626; stroke-width: 0.8"/>
      </g>
     </g>
     <g id="text_8">
      <!-- −12 -->
      <g style="fill: #262626" transform="translate(22.5 175.935688) scale(0.1 -0.1)">
       <use xlink:href="#ArialMT-2212"/>
       <use xlink:href="#ArialMT-31" x="58.398438"/>
       <use xlink:href="#ArialMT-32" x="114.013672"/>
      </g>
     </g>
    </g>
    <g id="ytick_2">
     <g id="line2d_52">
      <g>
       <use xlink:href="#m280e5ce1d7" x="46.4625" y="146.090651" style="fill: #262626; stroke: #262626; stroke-width: 0.8"/>
      </g>
     </g>
     <g id="text_9">
      <!-- −10 -->
      <g style="fill: #262626" transform="translate(22.5 149.669558) scale(0.1 -0.1)">
       <use xlink:href="#ArialMT-2212"/>
       <use xlink:href="#ArialMT-31" x="58.398438"/>
       <use xlink:href="#ArialMT-30" x="114.013672"/>
      </g>
     </g>
    </g>
    <g id="ytick_3">
     <g id="line2d_53">
      <g>
       <use xlink:href="#m280e5ce1d7" x="46.4625" y="119.824521" style="fill: #262626; stroke: #262626; stroke-width: 0.8"/>
      </g>
     </g>
     <g id="text_10">
      <!-- −8 -->
      <g style="fill: #262626" transform="translate(28.060938 123.403427) scale(0.1 -0.1)">
       <defs>
        <path id="ArialMT-38" d="M 1131 2484 
Q 781 2613 612 2850 
Q 444 3088 444 3419 
Q 444 3919 803 4259 
Q 1163 4600 1759 4600 
Q 2359 4600 2725 4251 
Q 3091 3903 3091 3403 
Q 3091 3084 2923 2848 
Q 2756 2613 2416 2484 
Q 2838 2347 3058 2040 
Q 3278 1734 3278 1309 
Q 3278 722 2862 322 
Q 2447 -78 1769 -78 
Q 1091 -78 675 323 
Q 259 725 259 1325 
Q 259 1772 486 2073 
Q 713 2375 1131 2484 
z
M 1019 3438 
Q 1019 3113 1228 2906 
Q 1438 2700 1772 2700 
Q 2097 2700 2305 2904 
Q 2513 3109 2513 3406 
Q 2513 3716 2298 3927 
Q 2084 4138 1766 4138 
Q 1444 4138 1231 3931 
Q 1019 3725 1019 3438 
z
M 838 1322 
Q 838 1081 952 856 
Q 1066 631 1291 507 
Q 1516 384 1775 384 
Q 2178 384 2440 643 
Q 2703 903 2703 1303 
Q 2703 1709 2433 1975 
Q 2163 2241 1756 2241 
Q 1359 2241 1098 1978 
Q 838 1716 838 1322 
z
" transform="scale(0.015625)"/>
       </defs>
       <use xlink:href="#ArialMT-2212"/>
       <use xlink:href="#ArialMT-38" x="58.398438"/>
      </g>
     </g>
    </g>
    <g id="ytick_4">
     <g id="line2d_54">
      <g>
       <use xlink:href="#m280e5ce1d7" x="46.4625" y="93.558391" style="fill: #262626; stroke: #262626; stroke-width: 0.8"/>
      </g>
     </g>
     <g id="text_11">
      <!-- −6 -->
      <g style="fill: #262626" transform="translate(28.060938 97.137297) scale(0.1 -0.1)">
       <defs>
        <path id="ArialMT-36" d="M 3184 3459 
L 2625 3416 
Q 2550 3747 2413 3897 
Q 2184 4138 1850 4138 
Q 1581 4138 1378 3988 
Q 1113 3794 959 3422 
Q 806 3050 800 2363 
Q 1003 2672 1297 2822 
Q 1591 2972 1913 2972 
Q 2475 2972 2870 2558 
Q 3266 2144 3266 1488 
Q 3266 1056 3080 686 
Q 2894 316 2569 119 
Q 2244 -78 1831 -78 
Q 1128 -78 684 439 
Q 241 956 241 2144 
Q 241 3472 731 4075 
Q 1159 4600 1884 4600 
Q 2425 4600 2770 4297 
Q 3116 3994 3184 3459 
z
M 888 1484 
Q 888 1194 1011 928 
Q 1134 663 1356 523 
Q 1578 384 1822 384 
Q 2178 384 2434 671 
Q 2691 959 2691 1453 
Q 2691 1928 2437 2201 
Q 2184 2475 1800 2475 
Q 1419 2475 1153 2201 
Q 888 1928 888 1484 
z
" transform="scale(0.015625)"/>
       </defs>
       <use xlink:href="#ArialMT-2212"/>
       <use xlink:href="#ArialMT-36" x="58.398438"/>
      </g>
     </g>
    </g>
    <g id="ytick_5">
     <g id="line2d_55">
      <g>
       <use xlink:href="#m280e5ce1d7" x="46.4625" y="67.292261" style="fill: #262626; stroke: #262626; stroke-width: 0.8"/>
      </g>
     </g>
     <g id="text_12">
      <!-- −4 -->
      <g style="fill: #262626" transform="translate(28.060938 70.871167) scale(0.1 -0.1)">
       <use xlink:href="#ArialMT-2212"/>
       <use xlink:href="#ArialMT-34" x="58.398438"/>
      </g>
     </g>
    </g>
    <g id="ytick_6">
     <g id="line2d_56">
      <g>
       <use xlink:href="#m280e5ce1d7" x="46.4625" y="41.02613" style="fill: #262626; stroke: #262626; stroke-width: 0.8"/>
      </g>
     </g>
     <g id="text_13">
      <!-- −2 -->
      <g style="fill: #262626" transform="translate(28.060938 44.605037) scale(0.1 -0.1)">
       <use xlink:href="#ArialMT-2212"/>
       <use xlink:href="#ArialMT-32" x="58.398438"/>
      </g>
     </g>
    </g>
    <g id="ytick_7">
     <g id="line2d_57">
      <g>
       <use xlink:href="#m280e5ce1d7" x="46.4625" y="14.76" style="fill: #262626; stroke: #262626; stroke-width: 0.8"/>
      </g>
     </g>
     <g id="text_14">
      <!-- 0 -->
      <g style="fill: #262626" transform="translate(33.901563 18.338906) scale(0.1 -0.1)">
       <use xlink:href="#ArialMT-30"/>
      </g>
     </g>
    </g>
    <g id="text_15">
     <!-- $(X^{\phi} -1)/{\phi}$ -->
     <g style="fill: #262626" transform="translate(16.4 114.81) rotate(-90) scale(0.1 -0.1)">
      <defs>
       <path id="DejaVuSans-28" d="M 1984 4856 
Q 1566 4138 1362 3434 
Q 1159 2731 1159 2009 
Q 1159 1288 1364 580 
Q 1569 -128 1984 -844 
L 1484 -844 
Q 1016 -109 783 600 
Q 550 1309 550 2009 
Q 550 2706 781 3412 
Q 1013 4119 1484 4856 
L 1984 4856 
z
" transform="scale(0.015625)"/>
       <path id="DejaVuSans-Oblique-3d5" d="M 2991 4863 
L 2738 3572 
Q 3363 3572 3684 3094 
Q 4016 2606 3850 1747 
Q 3681 888 3159 400 
Q 2653 -78 2028 -78 
L 1784 -1331 
L 1213 -1331 
L 1456 -78 
Q 834 -78 509 400 
Q 178 888 347 1747 
Q 513 2606 1034 3094 
Q 1544 3572 2166 3572 
L 2419 4863 
L 2991 4863 
z
M 2128 434 
Q 2481 434 2784 756 
Q 3116 1116 3244 1747 
Q 3369 2372 3169 2738 
Q 2991 3059 2638 3059 
L 2128 434 
z
M 1556 434 
L 2066 3059 
Q 1716 3059 1413 2738 
Q 1072 2372 953 1747 
Q 834 1116 1028 756 
Q 1203 434 1556 434 
z
" transform="scale(0.015625)"/>
       <path id="DejaVuSans-2212" d="M 678 2272 
L 4684 2272 
L 4684 1741 
L 678 1741 
L 678 2272 
z
" transform="scale(0.015625)"/>
       <path id="DejaVuSans-31" d="M 794 531 
L 1825 531 
L 1825 4091 
L 703 3866 
L 703 4441 
L 1819 4666 
L 2450 4666 
L 2450 531 
L 3481 531 
L 3481 0 
L 794 0 
L 794 531 
z
" transform="scale(0.015625)"/>
       <path id="DejaVuSans-29" d="M 513 4856 
L 1013 4856 
Q 1481 4119 1714 3412 
Q 1947 2706 1947 2009 
Q 1947 1309 1714 600 
Q 1481 -109 1013 -844 
L 513 -844 
Q 928 -128 1133 580 
Q 1338 1288 1338 2009 
Q 1338 2731 1133 3434 
Q 928 4138 513 4856 
z
" transform="scale(0.015625)"/>
       <path id="DejaVuSans-2f" d="M 1625 4666 
L 2156 4666 
L 531 -594 
L 0 -594 
L 1625 4666 
z
" transform="scale(0.015625)"/>
      </defs>
      <use xlink:href="#DejaVuSans-28" transform="translate(0 0.529687)"/>
      <use xlink:href="#DejaVuSans-Oblique-58" transform="translate(39.013672 0.529687)"/>
      <use xlink:href="#DejaVuSans-Oblique-3d5" transform="translate(114.536302 38.810937) scale(0.7)"/>
      <use xlink:href="#DejaVuSans-2212" transform="translate(182.929857 0.529687)"/>
      <use xlink:href="#DejaVuSans-31" transform="translate(286.201341 0.529687)"/>
      <use xlink:href="#DejaVuSans-29" transform="translate(349.824388 0.529687)"/>
      <use xlink:href="#DejaVuSans-2f" transform="translate(388.83806 0.529687)"/>
      <use xlink:href="#DejaVuSans-Oblique-3d5" transform="translate(422.529466 0.529687)"/>
     </g>
    </g>
   </g>
   <g id="line2d_58">
    <path d="M 59.144318 157.580851 
L 61.706302 156.218876 
L 64.268285 154.855316 
L 66.830269 153.49017 
L 69.392252 152.123435 
L 71.954236 150.75511 
L 74.516219 149.385192 
L 77.078202 148.013681 
L 79.640186 146.640573 
L 82.202169 145.265868 
L 84.764153 143.889564 
L 87.326136 142.511657 
L 89.88812 141.132148 
L 92.450103 139.751033 
L 95.012087 138.368311 
L 97.57407 136.983981 
L 100.136054 135.598039 
L 102.698037 134.210485 
L 105.260021 132.821316 
L 107.822004 131.430531 
L 110.383988 130.038128 
L 112.945971 128.644104 
L 115.507955 127.248458 
L 118.069938 125.851188 
L 120.631921 124.452293 
L 123.193905 123.051769 
L 125.755888 121.649616 
L 128.317872 120.245832 
L 130.879855 118.840414 
L 133.441839 117.43336 
L 136.003822 116.02467 
L 138.565806 114.61434 
L 141.127789 113.202369 
L 143.689773 111.788756 
L 146.251756 110.373497 
L 148.81374 108.956591 
L 151.375723 107.538037 
L 153.937707 106.117833 
L 156.49969 104.695975 
L 159.061674 103.272464 
L 161.623657 101.847295 
L 164.18564 100.420469 
L 166.747624 98.991982 
L 169.309607 97.561833 
L 171.871591 96.13002 
L 174.433574 94.696541 
L 176.995558 93.261394 
L 179.557541 91.824577 
L 182.119525 90.386088 
L 184.681508 88.945925 
L 187.243492 87.504087 
L 189.805475 86.06057 
L 192.367459 84.615375 
L 194.929442 83.168497 
L 197.491426 81.719936 
L 200.053409 80.269689 
L 202.615393 78.817755 
L 205.177376 77.364131 
L 207.73936 75.908816 
L 210.301343 74.451808 
L 212.863326 72.993104 
L 215.42531 71.532703 
L 217.987293 70.070602 
L 220.549277 68.606801 
L 223.11126 67.141295 
L 225.673244 65.674085 
L 228.235227 64.205168 
L 230.797211 62.734541 
L 233.359194 61.262203 
L 235.921178 59.788151 
L 238.483161 58.312385 
L 241.045145 56.834901 
L 243.607128 55.355699 
L 246.169112 53.874775 
L 248.731095 52.392127 
L 251.293079 50.907755 
L 253.855062 49.421655 
L 256.417045 47.933826 
L 258.979029 46.444266 
L 261.541012 44.952973 
L 264.102996 43.459944 
L 266.664979 41.965178 
L 269.226963 40.468673 
L 271.788946 38.970426 
L 274.35093 37.470437 
L 276.912913 35.968701 
L 279.474897 34.465219 
L 282.03688 32.959986 
L 284.598864 31.453003 
L 287.160847 29.944266 
L 289.722831 28.433773 
L 292.284814 26.921523 
L 294.846798 25.407513 
L 297.408781 23.891741 
L 299.970764 22.374205 
L 302.532748 20.854904 
L 305.094731 19.333835 
L 307.656715 17.810996 
L 310.218698 16.286385 
L 312.780682 14.76 
" clip-path="url(#pf79747db3c)" style="fill: none; stroke: #1f77b4; stroke-width: 1.5; stroke-linecap: round"/>
   </g>
   <g id="line2d_59">
    <path d="M 59.144318 129.715998 
L 61.706302 128.854647 
L 64.268285 127.988274 
L 66.830269 127.116848 
L 69.392252 126.240341 
L 71.954236 125.358722 
L 74.516219 124.471962 
L 77.078202 123.580031 
L 79.640186 122.682898 
L 82.202169 121.780534 
L 84.764153 120.872908 
L 87.326136 119.959989 
L 89.88812 119.041746 
L 92.450103 118.118148 
L 95.012087 117.189164 
L 97.57407 116.254763 
L 100.136054 115.314913 
L 102.698037 114.369582 
L 105.260021 113.418738 
L 107.822004 112.46235 
L 110.383988 111.500384 
L 112.945971 110.532808 
L 115.507955 109.55959 
L 118.069938 108.580697 
L 120.631921 107.596095 
L 123.193905 106.605751 
L 125.755888 105.609633 
L 128.317872 104.607705 
L 130.879855 103.599934 
L 133.441839 102.586287 
L 136.003822 101.566728 
L 138.565806 100.541224 
L 141.127789 99.50974 
L 143.689773 98.47224 
L 146.251756 97.428691 
L 148.81374 96.379055 
L 151.375723 95.323299 
L 153.937707 94.261386 
L 156.49969 93.19328 
L 159.061674 92.118946 
L 161.623657 91.038347 
L 164.18564 89.951446 
L 166.747624 88.858207 
L 169.309607 87.758592 
L 171.871591 86.652565 
L 174.433574 85.540089 
L 176.995558 84.421124 
L 179.557541 83.295635 
L 182.119525 82.163582 
L 184.681508 81.024928 
L 187.243492 79.879633 
L 189.805475 78.72766 
L 192.367459 77.568968 
L 194.929442 76.40352 
L 197.491426 75.231276 
L 200.053409 74.052195 
L 202.615393 72.866239 
L 205.177376 71.673366 
L 207.73936 70.473538 
L 210.301343 69.266712 
L 212.863326 68.052849 
L 215.42531 66.831907 
L 217.987293 65.603845 
L 220.549277 64.368622 
L 223.11126 63.126195 
L 225.673244 61.876524 
L 228.235227 60.619564 
L 230.797211 59.355275 
L 233.359194 58.083613 
L 235.921178 56.804535 
L 238.483161 55.517998 
L 241.045145 54.223958 
L 243.607128 52.922373 
L 246.169112 51.613197 
L 248.731095 50.296386 
L 251.293079 48.971897 
L 253.855062 47.639683 
L 256.417045 46.299701 
L 258.979029 44.951905 
L 261.541012 43.596249 
L 264.102996 42.232687 
L 266.664979 40.861174 
L 269.226963 39.481662 
L 271.788946 38.094106 
L 274.35093 36.698459 
L 276.912913 35.294672 
L 279.474897 33.882699 
L 282.03688 32.462493 
L 284.598864 31.034004 
L 287.160847 29.597185 
L 289.722831 28.151987 
L 292.284814 26.698362 
L 294.846798 25.236259 
L 297.408781 23.76563 
L 299.970764 22.286425 
L 302.532748 20.798595 
L 305.094731 19.302087 
L 307.656715 17.796853 
L 310.218698 16.282841 
L 312.780682 14.76 
" clip-path="url(#pf79747db3c)" style="fill: none; stroke: #ff7f0e; stroke-width: 1.5; stroke-linecap: round"/>
   </g>
   <g id="line2d_60">
    <path d="M 59.144318 104.560253 
L 61.706302 104.074468 
L 64.268285 103.583 
L 66.830269 103.085784 
L 69.392252 102.582752 
L 71.954236 102.073835 
L 74.516219 101.558966 
L 77.078202 101.038075 
L 79.640186 100.51109 
L 82.202169 99.977942 
L 84.764153 99.438557 
L 87.326136 98.892862 
L 89.88812 98.340785 
L 92.450103 97.78225 
L 95.012087 97.217182 
L 97.57407 96.645504 
L 100.136054 96.067139 
L 102.698037 95.482009 
L 105.260021 94.890035 
L 107.822004 94.291136 
L 110.383988 93.685232 
L 112.945971 93.072241 
L 115.507955 92.452079 
L 118.069938 91.824663 
L 120.631921 91.189909 
L 123.193905 90.547729 
L 125.755888 89.898038 
L 128.317872 89.240747 
L 130.879855 88.575768 
L 133.441839 87.903011 
L 136.003822 87.222385 
L 138.565806 86.533797 
L 141.127789 85.837154 
L 143.689773 85.132363 
L 146.251756 84.419328 
L 148.81374 83.697952 
L 151.375723 82.968138 
L 153.937707 82.229788 
L 156.49969 81.482801 
L 159.061674 80.727077 
L 161.623657 79.962512 
L 164.18564 79.189005 
L 166.747624 78.40645 
L 169.309607 77.614741 
L 171.871591 76.813771 
L 174.433574 76.003433 
L 176.995558 75.183616 
L 179.557541 74.354209 
L 182.119525 73.515101 
L 184.681508 72.666177 
L 187.243492 71.807324 
L 189.805475 70.938424 
L 192.367459 70.059361 
L 194.929442 69.170015 
L 197.491426 68.270267 
L 200.053409 67.359994 
L 202.615393 66.439074 
L 205.177376 65.507381 
L 207.73936 64.564791 
L 210.301343 63.611175 
L 212.863326 62.646404 
L 215.42531 61.670348 
L 217.987293 60.682876 
L 220.549277 59.683852 
L 223.11126 58.673143 
L 225.673244 57.650612 
L 228.235227 56.61612 
L 230.797211 55.569528 
L 233.359194 54.510693 
L 235.921178 53.439473 
L 238.483161 52.355723 
L 241.045145 51.259296 
L 243.607128 50.150044 
L 246.169112 49.027817 
L 248.731095 47.892464 
L 251.293079 46.74383 
L 253.855062 45.58176 
L 256.417045 44.406098 
L 258.979029 43.216683 
L 261.541012 42.013356 
L 264.102996 40.795954 
L 266.664979 39.564311 
L 269.226963 38.318262 
L 271.788946 37.057637 
L 274.35093 35.782267 
L 276.912913 34.491979 
L 279.474897 33.186598 
L 282.03688 31.865948 
L 284.598864 30.529851 
L 287.160847 29.178124 
L 289.722831 27.810587 
L 292.284814 26.427053 
L 294.846798 25.027336 
L 297.408781 23.611246 
L 299.970764 22.178593 
L 302.532748 20.729181 
L 305.094731 19.262815 
L 307.656715 17.779297 
L 310.218698 16.278427 
L 312.780682 14.76 
" clip-path="url(#pf79747db3c)" style="fill: none; stroke: #2ca02c; stroke-width: 1.5; stroke-linecap: round"/>
   </g>
   <g id="line2d_61">
    <path d="M 59.144318 40.943069 
L 61.706302 40.938097 
L 64.268285 40.932826 
L 66.830269 40.92724 
L 69.392252 40.921319 
L 71.954236 40.915044 
L 74.516219 40.908394 
L 77.078202 40.901345 
L 79.640186 40.893874 
L 82.202169 40.885956 
L 84.764153 40.877564 
L 87.326136 40.868669 
L 89.88812 40.859242 
L 92.450103 40.84925 
L 95.012087 40.83866 
L 97.57407 40.827437 
L 100.136054 40.815541 
L 102.698037 40.802933 
L 105.260021 40.78957 
L 107.822004 40.775407 
L 110.383988 40.760397 
L 112.945971 40.744487 
L 115.507955 40.727625 
L 118.069938 40.709754 
L 120.631921 40.690812 
L 123.193905 40.670737 
L 125.755888 40.64946 
L 128.317872 40.626908 
L 130.879855 40.603007 
L 133.441839 40.577675 
L 136.003822 40.550826 
L 138.565806 40.522369 
L 141.127789 40.492209 
L 143.689773 40.460244 
L 146.251756 40.426364 
L 148.81374 40.390456 
L 151.375723 40.352399 
L 153.937707 40.312062 
L 156.49969 40.269311 
L 159.061674 40.224001 
L 161.623657 40.175977 
L 164.18564 40.125079 
L 166.747624 40.071133 
L 169.309607 40.013957 
L 171.871591 39.953359 
L 174.433574 39.889132 
L 176.995558 39.82106 
L 179.557541 39.748913 
L 182.119525 39.672446 
L 184.681508 39.591401 
L 187.243492 39.505504 
L 189.805475 39.414465 
L 192.367459 39.317975 
L 194.929442 39.215708 
L 197.491426 39.107318 
L 200.053409 38.992439 
L 202.615393 38.870682 
L 205.177376 38.741636 
L 207.73936 38.604864 
L 210.301343 38.459903 
L 212.863326 38.306264 
L 215.42531 38.143426 
L 217.987293 37.970839 
L 220.549277 37.787919 
L 223.11126 37.594048 
L 225.673244 37.38857 
L 228.235227 37.17079 
L 230.797211 36.939971 
L 233.359194 36.695333 
L 235.921178 36.436049 
L 238.483161 36.161242 
L 241.045145 35.869982 
L 243.607128 35.561284 
L 246.169112 35.234105 
L 248.731095 34.887338 
L 251.293079 34.519809 
L 253.855062 34.130277 
L 256.417045 33.717423 
L 258.979029 33.279853 
L 261.541012 32.816084 
L 264.102996 32.32455 
L 266.664979 31.803588 
L 269.226963 31.251436 
L 271.788946 30.666227 
L 274.35093 30.045982 
L 276.912913 29.388602 
L 279.474897 28.691866 
L 282.03688 27.953415 
L 284.598864 27.170754 
L 287.160847 26.341235 
L 289.722831 25.462053 
L 292.284814 24.530235 
L 294.846798 23.542629 
L 297.408781 22.495895 
L 299.970764 21.386493 
L 302.532748 20.210671 
L 305.094731 18.964453 
L 307.656715 17.643625 
L 310.218698 16.243719 
L 312.780682 14.76 
" clip-path="url(#pf79747db3c)" style="fill: none; stroke: #d62728; stroke-width: 1.5; stroke-linecap: round"/>
   </g>
   <g id="line2d_62">
    <path d="M 59.144318 27.892934 
L 61.706302 27.892918 
L 64.268285 27.892899 
L 66.830269 27.892879 
L 69.392252 27.892856 
L 71.954236 27.89283 
L 74.516219 27.892801 
L 77.078202 27.892769 
L 79.640186 27.892732 
L 82.202169 27.892691 
L 84.764153 27.892645 
L 87.326136 27.892593 
L 89.88812 27.892535 
L 92.450103 27.89247 
L 95.012087 27.892396 
L 97.57407 27.892314 
L 100.136054 27.892221 
L 102.698037 27.892117 
L 105.260021 27.892 
L 107.822004 27.891868 
L 110.383988 27.891721 
L 112.945971 27.891555 
L 115.507955 27.891369 
L 118.069938 27.89116 
L 120.631921 27.890925 
L 123.193905 27.890661 
L 125.755888 27.890364 
L 128.317872 27.890031 
L 130.879855 27.889657 
L 133.441839 27.889237 
L 136.003822 27.888765 
L 138.565806 27.888234 
L 141.127789 27.887639 
L 143.689773 27.886969 
L 146.251756 27.886218 
L 148.81374 27.885373 
L 151.375723 27.884424 
L 153.937707 27.883359 
L 156.49969 27.882162 
L 159.061674 27.880817 
L 161.623657 27.879307 
L 164.18564 27.87761 
L 166.747624 27.875704 
L 169.309607 27.873563 
L 171.871591 27.871158 
L 174.433574 27.868456 
L 176.995558 27.865421 
L 179.557541 27.862012 
L 182.119525 27.858183 
L 184.681508 27.853881 
L 187.243492 27.849048 
L 189.805475 27.84362 
L 192.367459 27.837522 
L 194.929442 27.830672 
L 197.491426 27.822978 
L 200.053409 27.814334 
L 202.615393 27.804625 
L 205.177376 27.793718 
L 207.73936 27.781466 
L 210.301343 27.767704 
L 212.863326 27.752244 
L 215.42531 27.734877 
L 217.987293 27.715368 
L 220.549277 27.693454 
L 223.11126 27.668837 
L 225.673244 27.641185 
L 228.235227 27.610122 
L 230.797211 27.575228 
L 233.359194 27.536031 
L 235.921178 27.492 
L 238.483161 27.442539 
L 241.045145 27.386979 
L 243.607128 27.324566 
L 246.169112 27.254457 
L 248.731095 27.175701 
L 251.293079 27.087232 
L 253.855062 26.987854 
L 256.417045 26.87622 
L 258.979029 26.750818 
L 261.541012 26.609952 
L 264.102996 26.451713 
L 266.664979 26.273959 
L 269.226963 26.074285 
L 271.788946 25.849986 
L 274.35093 25.598025 
L 276.912913 25.314991 
L 279.474897 24.997053 
L 282.03688 24.639905 
L 284.598864 24.238712 
L 287.160847 23.788042 
L 289.722831 23.281794 
L 292.284814 22.713114 
L 294.846798 22.074301 
L 297.408781 21.356708 
L 299.970764 20.550618 
L 302.532748 19.645117 
L 305.094731 18.627947 
L 307.656715 17.485336 
L 310.218698 16.201812 
L 312.780682 14.76 
" clip-path="url(#pf79747db3c)" style="fill: none; stroke: #9467bd; stroke-width: 1.5; stroke-linecap: round"/>
   </g>
   <g id="line2d_63">
    <path d="M 59.144318 165.96 
L 61.706302 164.432727 
L 64.268285 162.905455 
L 66.830269 161.378182 
L 69.392252 159.850909 
L 71.954236 158.323636 
L 74.516219 156.796364 
L 77.078202 155.269091 
L 79.640186 153.741818 
L 82.202169 152.214545 
L 84.764153 150.687273 
L 87.326136 149.16 
L 89.88812 147.632727 
L 92.450103 146.105455 
L 95.012087 144.578182 
L 97.57407 143.050909 
L 100.136054 141.523636 
L 102.698037 139.996364 
L 105.260021 138.469091 
L 107.822004 136.941818 
L 110.383988 135.414545 
L 112.945971 133.887273 
L 115.507955 132.36 
L 118.069938 130.832727 
L 120.631921 129.305455 
L 123.193905 127.778182 
L 125.755888 126.250909 
L 128.317872 124.723636 
L 130.879855 123.196364 
L 133.441839 121.669091 
L 136.003822 120.141818 
L 138.565806 118.614545 
L 141.127789 117.087273 
L 143.689773 115.56 
L 146.251756 114.032727 
L 148.81374 112.505455 
L 151.375723 110.978182 
L 153.937707 109.450909 
L 156.49969 107.923636 
L 159.061674 106.396364 
L 161.623657 104.869091 
L 164.18564 103.341818 
L 166.747624 101.814545 
L 169.309607 100.287273 
L 171.871591 98.76 
L 174.433574 97.232727 
L 176.995558 95.705455 
L 179.557541 94.178182 
L 182.119525 92.650909 
L 184.681508 91.123636 
L 187.243492 89.596364 
L 189.805475 88.069091 
L 192.367459 86.541818 
L 194.929442 85.014545 
L 197.491426 83.487273 
L 200.053409 81.96 
L 202.615393 80.432727 
L 205.177376 78.905455 
L 207.73936 77.378182 
L 210.301343 75.850909 
L 212.863326 74.323636 
L 215.42531 72.796364 
L 217.987293 71.269091 
L 220.549277 69.741818 
L 223.11126 68.214545 
L 225.673244 66.687273 
L 228.235227 65.16 
L 230.797211 63.632727 
L 233.359194 62.105455 
L 235.921178 60.578182 
L 238.483161 59.050909 
L 241.045145 57.523636 
L 243.607128 55.996364 
L 246.169112 54.469091 
L 248.731095 52.941818 
L 251.293079 51.414545 
L 253.855062 49.887273 
L 256.417045 48.36 
L 258.979029 46.832727 
L 261.541012 45.305455 
L 264.102996 43.778182 
L 266.664979 42.250909 
L 269.226963 40.723636 
L 271.788946 39.196364 
L 274.35093 37.669091 
L 276.912913 36.141818 
L 279.474897 34.614545 
L 282.03688 33.087273 
L 284.598864 31.56 
L 287.160847 30.032727 
L 289.722831 28.505455 
L 292.284814 26.978182 
L 294.846798 25.450909 
L 297.408781 23.923636 
L 299.970764 22.396364 
L 302.532748 20.869091 
L 305.094731 19.341818 
L 307.656715 17.814545 
L 310.218698 16.287273 
L 312.780682 14.76 
" clip-path="url(#pf79747db3c)" style="fill: none; stroke: #000000; stroke-width: 1.5; stroke-linecap: round"/>
   </g>
   <g id="patch_3">
    <path d="M 46.4625 173.52 
L 46.4625 7.2 
" style="fill: none; stroke: #262626; stroke-width: 0.8; stroke-linejoin: miter; stroke-linecap: square"/>
   </g>
   <g id="patch_4">
    <path d="M 325.4625 173.52 
L 325.4625 7.2 
" style="fill: none; stroke: #262626; stroke-width: 0.8; stroke-linejoin: miter; stroke-linecap: square"/>
   </g>
   <g id="patch_5">
    <path d="M 46.4625 173.52 
L 325.4625 173.52 
" style="fill: none; stroke: #262626; stroke-width: 0.8; stroke-linejoin: miter; stroke-linecap: square"/>
   </g>
   <g id="patch_6">
    <path d="M 46.4625 7.2 
L 325.4625 7.2 
" style="fill: none; stroke: #262626; stroke-width: 0.8; stroke-linejoin: miter; stroke-linecap: square"/>
   </g>
   <g id="legend_1">
    <g id="patch_7">
     <path d="M 341.4125 109.889063 
L 392.873438 109.889063 
Q 394.873438 109.889063 394.873438 107.889063 
L 394.873438 9.2 
Q 394.873438 7.2 392.873438 7.2 
L 341.4125 7.2 
Q 339.4125 7.2 339.4125 9.2 
L 339.4125 107.889063 
Q 339.4125 109.889063 341.4125 109.889063 
z
" style="fill: #ffffff; opacity: 0.8; stroke: #cccccc; stroke-linejoin: miter"/>
    </g>
    <g id="text_16">
     <!-- $\phi$ -->
     <g style="fill: #262626" transform="translate(363.842969 18.8) scale(0.1 -0.1)">
      <use xlink:href="#DejaVuSans-Oblique-3d5" transform="translate(0 0.015625)"/>
     </g>
    </g>
    <g id="line2d_64">
     <path d="M 343.4125 29.557813 
L 353.4125 29.557813 
L 363.4125 29.557813 
" style="fill: none; stroke: #1f77b4; stroke-width: 1.5; stroke-linecap: round"/>
    </g>
    <g id="text_17">
     <!-- 0.01 -->
     <g style="fill: #262626" transform="translate(371.4125 33.057813) scale(0.1 -0.1)">
      <defs>
       <path id="ArialMT-2e" d="M 581 0 
L 581 641 
L 1222 641 
L 1222 0 
L 581 0 
z
" transform="scale(0.015625)"/>
      </defs>
      <use xlink:href="#ArialMT-30"/>
      <use xlink:href="#ArialMT-2e" x="55.615234"/>
      <use xlink:href="#ArialMT-30" x="83.398438"/>
      <use xlink:href="#ArialMT-31" x="139.013672"/>
     </g>
    </g>
    <g id="line2d_65">
     <path d="M 343.4125 43.703125 
L 353.4125 43.703125 
L 363.4125 43.703125 
" style="fill: none; stroke: #ff7f0e; stroke-width: 1.5; stroke-linecap: round"/>
    </g>
    <g id="text_18">
     <!-- 0.05 -->
     <g style="fill: #262626" transform="translate(371.4125 47.203125) scale(0.1 -0.1)">
      <use xlink:href="#ArialMT-30"/>
      <use xlink:href="#ArialMT-2e" x="55.615234"/>
      <use xlink:href="#ArialMT-30" x="83.398438"/>
      <use xlink:href="#ArialMT-35" x="139.013672"/>
     </g>
    </g>
    <g id="line2d_66">
     <path d="M 343.4125 57.848438 
L 353.4125 57.848438 
L 363.4125 57.848438 
" style="fill: none; stroke: #2ca02c; stroke-width: 1.5; stroke-linecap: round"/>
    </g>
    <g id="text_19">
     <!-- 0.1 -->
     <g style="fill: #262626" transform="translate(371.4125 61.348438) scale(0.1 -0.1)">
      <use xlink:href="#ArialMT-30"/>
      <use xlink:href="#ArialMT-2e" x="55.615234"/>
      <use xlink:href="#ArialMT-31" x="83.398438"/>
     </g>
    </g>
    <g id="line2d_67">
     <path d="M 343.4125 71.99375 
L 353.4125 71.99375 
L 363.4125 71.99375 
" style="fill: none; stroke: #d62728; stroke-width: 1.5; stroke-linecap: round"/>
    </g>
    <g id="text_20">
     <!-- 0.5 -->
     <g style="fill: #262626" transform="translate(371.4125 75.49375) scale(0.1 -0.1)">
      <use xlink:href="#ArialMT-30"/>
      <use xlink:href="#ArialMT-2e" x="55.615234"/>
      <use xlink:href="#ArialMT-35" x="83.398438"/>
     </g>
    </g>
    <g id="line2d_68">
     <path d="M 343.4125 86.139063 
L 353.4125 86.139063 
L 363.4125 86.139063 
" style="fill: none; stroke: #9467bd; stroke-width: 1.5; stroke-linecap: round"/>
    </g>
    <g id="text_21">
     <!-- 1 -->
     <g style="fill: #262626" transform="translate(371.4125 89.639063) scale(0.1 -0.1)">
      <use xlink:href="#ArialMT-31"/>
     </g>
    </g>
    <g id="line2d_69">
     <path d="M 343.4125 100.284375 
L 353.4125 100.284375 
L 363.4125 100.284375 
" style="fill: none; stroke: #000000; stroke-width: 1.5; stroke-linecap: round"/>
    </g>
    <g id="text_22">
     <!-- log -->
     <g style="fill: #262626" transform="translate(371.4125 103.784375) scale(0.1 -0.1)">
      <defs>
       <path id="ArialMT-6c" d="M 409 0 
L 409 4581 
L 972 4581 
L 972 0 
L 409 0 
z
" transform="scale(0.015625)"/>
       <path id="ArialMT-6f" d="M 213 1659 
Q 213 2581 725 3025 
Q 1153 3394 1769 3394 
Q 2453 3394 2887 2945 
Q 3322 2497 3322 1706 
Q 3322 1066 3130 698 
Q 2938 331 2570 128 
Q 2203 -75 1769 -75 
Q 1072 -75 642 372 
Q 213 819 213 1659 
z
M 791 1659 
Q 791 1022 1069 705 
Q 1347 388 1769 388 
Q 2188 388 2466 706 
Q 2744 1025 2744 1678 
Q 2744 2294 2464 2611 
Q 2184 2928 1769 2928 
Q 1347 2928 1069 2612 
Q 791 2297 791 1659 
z
" transform="scale(0.015625)"/>
       <path id="ArialMT-67" d="M 319 -275 
L 866 -356 
Q 900 -609 1056 -725 
Q 1266 -881 1628 -881 
Q 2019 -881 2231 -725 
Q 2444 -569 2519 -288 
Q 2563 -116 2559 434 
Q 2191 0 1641 0 
Q 956 0 581 494 
Q 206 988 206 1678 
Q 206 2153 378 2554 
Q 550 2956 876 3175 
Q 1203 3394 1644 3394 
Q 2231 3394 2613 2919 
L 2613 3319 
L 3131 3319 
L 3131 450 
Q 3131 -325 2973 -648 
Q 2816 -972 2473 -1159 
Q 2131 -1347 1631 -1347 
Q 1038 -1347 672 -1080 
Q 306 -813 319 -275 
z
M 784 1719 
Q 784 1066 1043 766 
Q 1303 466 1694 466 
Q 2081 466 2343 764 
Q 2606 1063 2606 1700 
Q 2606 2309 2336 2618 
Q 2066 2928 1684 2928 
Q 1309 2928 1046 2623 
Q 784 2319 784 1719 
z
" transform="scale(0.015625)"/>
      </defs>
      <use xlink:href="#ArialMT-6c"/>
      <use xlink:href="#ArialMT-6f" x="22.216797"/>
      <use xlink:href="#ArialMT-67" x="77.832031"/>
     </g>
    </g>
   </g>
  </g>
 </g>
 <defs>
  <clipPath id="pf79747db3c">
   <rect x="46.4625" y="7.2" width="279" height="166.32"/>
  </clipPath>
 </defs>
</svg>
