<?xml version="1.0" encoding="utf-8" standalone="no"?>
<!DOCTYPE svg PUBLIC "-//W3C//DTD SVG 1.1//EN"
  "http://www.w3.org/Graphics/SVG/1.1/DTD/svg11.dtd">
<svg xmlns:xlink="http://www.w3.org/1999/xlink" width="47.88pt" height="180.72pt" viewBox="0 0 47.88 180.72" xmlns="http://www.w3.org/2000/svg" version="1.1">
 <metadata>
  <rdf:RDF xmlns:dc="http://purl.org/dc/elements/1.1/" xmlns:cc="http://creativecommons.org/ns#" xmlns:rdf="http://www.w3.org/1999/02/22-rdf-syntax-ns#">
   <cc:Work>
    <dc:type rdf:resource="http://purl.org/dc/dcmitype/StillImage"/>
    <dc:date>2024-10-10T09:49:10.721863</dc:date>
    <dc:format>image/svg+xml</dc:format>
    <dc:creator>
     <cc:Agent>
      <dc:title>Matplotlib v3.9.2, https://matplotlib.org/</dc:title>
     </cc:Agent>
    </dc:creator>
   </cc:Work>
  </rdf:RDF>
 </metadata>
 <defs>
  <style type="text/css">*{stroke-linejoin: round; stroke-linecap: butt}</style>
 </defs>
 <g id="figure_1">
  <g id="patch_1">
   <path d="M 0 180.72 
L 47.88 180.72 
L 47.88 0 
L 0 0 
z
" style="fill: #ffffff"/>
  </g>
  <g id="axes_1">
   <g id="patch_2">
    <path d="M 7.2 173.52 
L 40.68 173.52 
L 40.68 7.2 
L 7.2 7.2 
z
" style="fill: #ffffff"/>
   </g>
   <g id="matplotlib.axis_1"/>
   <g id="matplotlib.axis_2"/>
   <g id="QuadMesh_1">
    <path d="M 7.2 7.2 
L 40.68 7.2 
L 40.68 40.464 
L 7.2 40.464 
L 7.2 7.2 
" clip-path="url(#p61428dc8c4)" style="fill: #5b84bd; stroke: #000000; stroke-width: 0.7"/>
    <path d="M 7.2 40.464 
L 40.68 40.464 
L 40.68 73.728 
L 7.2 73.728 
L 7.2 40.464 
" clip-path="url(#p61428dc8c4)" style="fill: #faf5f4; stroke: #000000; stroke-width: 0.7"/>
    <path d="M 7.2 73.728 
L 40.68 73.728 
L 40.68 106.992 
L 7.2 106.992 
L 7.2 73.728 
" clip-path="url(#p61428dc8c4)" style="fill: #faf5f4; stroke: #000000; stroke-width: 0.7"/>
    <path d="M 7.2 106.992 
L 40.68 106.992 
L 40.68 140.256 
L 7.2 140.256 
L 7.2 106.992 
" clip-path="url(#p61428dc8c4)" style="fill: #faf5f4; stroke: #000000; stroke-width: 0.7"/>
    <path d="M 7.2 140.256 
L 40.68 140.256 
L 40.68 173.52 
L 7.2 173.52 
L 7.2 140.256 
" clip-path="url(#p61428dc8c4)" style="fill: #faf5f4; stroke: #000000; stroke-width: 0.7"/>
   </g>
   <g id="patch_3">
    <path d="M 40.68 173.52 
L 40.68 7.2 
" style="fill: none; stroke: #cccccc; stroke-width: 0.8; stroke-linejoin: miter; stroke-linecap: square"/>
   </g>
   <g id="patch_4">
    <path d="M 7.2 173.52 
L 40.68 173.52 
" style="fill: none; stroke: #cccccc; stroke-width: 0.8; stroke-linejoin: miter; stroke-linecap: square"/>
   </g>
  </g>
 </g>
 <defs>
  <clipPath id="p61428dc8c4">
   <rect x="7.2" y="7.2" width="33.48" height="166.32"/>
  </clipPath>
 </defs>
</svg>
