<?xml version="1.0" encoding="utf-8" standalone="no"?>
<!DOCTYPE svg PUBLIC "-//W3C//DTD SVG 1.1//EN"
  "http://www.w3.org/Graphics/SVG/1.1/DTD/svg11.dtd">
<svg xmlns:xlink="http://www.w3.org/1999/xlink" width="422.70353pt" height="206.930625pt" viewBox="0 0 422.70353 206.930625" xmlns="http://www.w3.org/2000/svg" version="1.1">
 <metadata>
  <rdf:RDF xmlns:dc="http://purl.org/dc/elements/1.1/" xmlns:cc="http://creativecommons.org/ns#" xmlns:rdf="http://www.w3.org/1999/02/22-rdf-syntax-ns#">
   <cc:Work>
    <dc:type rdf:resource="http://purl.org/dc/dcmitype/StillImage"/>
    <dc:date>2024-10-10T09:49:24.015094</dc:date>
    <dc:format>image/svg+xml</dc:format>
    <dc:creator>
     <cc:Agent>
      <dc:title>Matplotlib v3.9.2, https://matplotlib.org/</dc:title>
     </cc:Agent>
    </dc:creator>
   </cc:Work>
  </rdf:RDF>
 </metadata>
 <defs>
  <style type="text/css">*{stroke-linejoin: round; stroke-linecap: butt}</style>
 </defs>
 <g id="figure_1">
  <g id="patch_1">
   <path d="M 0 206.930625 
L 422.70353 206.930625 
L 422.70353 0 
L 0 0 
z
" style="fill: #ffffff"/>
  </g>
  <g id="axes_1">
   <g id="patch_2">
    <path d="M 47.145313 170.44 
L 272.054438 170.44 
L 272.054438 7.2 
L 47.145313 7.2 
z
" style="fill: #ffffff"/>
   </g>
   <g id="matplotlib.axis_1">
    <g id="xtick_1">
     <g id="line2d_1">
      <defs>
       <path id="m0c3d878707" d="M 0 0 
L 0 3.5 
" style="stroke: #262626; stroke-width: 0.8"/>
      </defs>
      <g>
       <use xlink:href="#m0c3d878707" x="103.372594" y="170.44" style="fill: #262626; stroke: #262626; stroke-width: 0.8"/>
      </g>
     </g>
     <g id="text_1">
      <!-- Control -->
      <g style="fill: #262626" transform="translate(87.255406 184.597813) scale(0.1 -0.1)">
       <defs>
        <path id="ArialMT-43" d="M 3763 1606 
L 4369 1453 
Q 4178 706 3683 314 
Q 3188 -78 2472 -78 
Q 1731 -78 1267 223 
Q 803 525 561 1097 
Q 319 1669 319 2325 
Q 319 3041 592 3573 
Q 866 4106 1370 4382 
Q 1875 4659 2481 4659 
Q 3169 4659 3637 4309 
Q 4106 3959 4291 3325 
L 3694 3184 
Q 3534 3684 3231 3912 
Q 2928 4141 2469 4141 
Q 1941 4141 1586 3887 
Q 1231 3634 1087 3207 
Q 944 2781 944 2328 
Q 944 1744 1114 1308 
Q 1284 872 1643 656 
Q 2003 441 2422 441 
Q 2931 441 3284 734 
Q 3638 1028 3763 1606 
z
" transform="scale(0.015625)"/>
        <path id="ArialMT-6f" d="M 213 1659 
Q 213 2581 725 3025 
Q 1153 3394 1769 3394 
Q 2453 3394 2887 2945 
Q 3322 2497 3322 1706 
Q 3322 1066 3130 698 
Q 2938 331 2570 128 
Q 2203 -75 1769 -75 
Q 1072 -75 642 372 
Q 213 819 213 1659 
z
M 791 1659 
Q 791 1022 1069 705 
Q 1347 388 1769 388 
Q 2188 388 2466 706 
Q 2744 1025 2744 1678 
Q 2744 2294 2464 2611 
Q 2184 2928 1769 2928 
Q 1347 2928 1069 2612 
Q 791 2297 791 1659 
z
" transform="scale(0.015625)"/>
        <path id="ArialMT-6e" d="M 422 0 
L 422 3319 
L 928 3319 
L 928 2847 
Q 1294 3394 1984 3394 
Q 2284 3394 2536 3286 
Q 2788 3178 2913 3003 
Q 3038 2828 3088 2588 
Q 3119 2431 3119 2041 
L 3119 0 
L 2556 0 
L 2556 2019 
Q 2556 2363 2490 2533 
Q 2425 2703 2258 2804 
Q 2091 2906 1866 2906 
Q 1506 2906 1245 2678 
Q 984 2450 984 1813 
L 984 0 
L 422 0 
z
" transform="scale(0.015625)"/>
        <path id="ArialMT-74" d="M 1650 503 
L 1731 6 
Q 1494 -44 1306 -44 
Q 1000 -44 831 53 
Q 663 150 594 308 
Q 525 466 525 972 
L 525 2881 
L 113 2881 
L 113 3319 
L 525 3319 
L 525 4141 
L 1084 4478 
L 1084 3319 
L 1650 3319 
L 1650 2881 
L 1084 2881 
L 1084 941 
Q 1084 700 1114 631 
Q 1144 563 1211 522 
Q 1278 481 1403 481 
Q 1497 481 1650 503 
z
" transform="scale(0.015625)"/>
        <path id="ArialMT-72" d="M 416 0 
L 416 3319 
L 922 3319 
L 922 2816 
Q 1116 3169 1280 3281 
Q 1444 3394 1641 3394 
Q 1925 3394 2219 3213 
L 2025 2691 
Q 1819 2813 1613 2813 
Q 1428 2813 1281 2702 
Q 1134 2591 1072 2394 
Q 978 2094 978 1738 
L 978 0 
L 416 0 
z
" transform="scale(0.015625)"/>
        <path id="ArialMT-6c" d="M 409 0 
L 409 4581 
L 972 4581 
L 972 0 
L 409 0 
z
" transform="scale(0.015625)"/>
       </defs>
       <use xlink:href="#ArialMT-43"/>
       <use xlink:href="#ArialMT-6f" x="72.216797"/>
       <use xlink:href="#ArialMT-6e" x="127.832031"/>
       <use xlink:href="#ArialMT-74" x="183.447266"/>
       <use xlink:href="#ArialMT-72" x="211.230469"/>
       <use xlink:href="#ArialMT-6f" x="244.53125"/>
       <use xlink:href="#ArialMT-6c" x="300.146484"/>
      </g>
     </g>
    </g>
    <g id="xtick_2">
     <g id="line2d_2">
      <g>
       <use xlink:href="#m0c3d878707" x="215.827157" y="170.44" style="fill: #262626; stroke: #262626; stroke-width: 0.8"/>
      </g>
     </g>
     <g id="text_2">
      <!-- Treatment -->
      <g style="fill: #262626" transform="translate(193.231063 184.597813) scale(0.1 -0.1)">
       <defs>
        <path id="ArialMT-54" d="M 1659 0 
L 1659 4041 
L 150 4041 
L 150 4581 
L 3781 4581 
L 3781 4041 
L 2266 4041 
L 2266 0 
L 1659 0 
z
" transform="scale(0.015625)"/>
        <path id="ArialMT-65" d="M 2694 1069 
L 3275 997 
Q 3138 488 2766 206 
Q 2394 -75 1816 -75 
Q 1088 -75 661 373 
Q 234 822 234 1631 
Q 234 2469 665 2931 
Q 1097 3394 1784 3394 
Q 2450 3394 2872 2941 
Q 3294 2488 3294 1666 
Q 3294 1616 3291 1516 
L 816 1516 
Q 847 969 1125 678 
Q 1403 388 1819 388 
Q 2128 388 2347 550 
Q 2566 713 2694 1069 
z
M 847 1978 
L 2700 1978 
Q 2663 2397 2488 2606 
Q 2219 2931 1791 2931 
Q 1403 2931 1139 2672 
Q 875 2413 847 1978 
z
" transform="scale(0.015625)"/>
        <path id="ArialMT-61" d="M 2588 409 
Q 2275 144 1986 34 
Q 1697 -75 1366 -75 
Q 819 -75 525 192 
Q 231 459 231 875 
Q 231 1119 342 1320 
Q 453 1522 633 1644 
Q 813 1766 1038 1828 
Q 1203 1872 1538 1913 
Q 2219 1994 2541 2106 
Q 2544 2222 2544 2253 
Q 2544 2597 2384 2738 
Q 2169 2928 1744 2928 
Q 1347 2928 1158 2789 
Q 969 2650 878 2297 
L 328 2372 
Q 403 2725 575 2942 
Q 747 3159 1072 3276 
Q 1397 3394 1825 3394 
Q 2250 3394 2515 3294 
Q 2781 3194 2906 3042 
Q 3031 2891 3081 2659 
Q 3109 2516 3109 2141 
L 3109 1391 
Q 3109 606 3145 398 
Q 3181 191 3288 0 
L 2700 0 
Q 2613 175 2588 409 
z
M 2541 1666 
Q 2234 1541 1622 1453 
Q 1275 1403 1131 1340 
Q 988 1278 909 1158 
Q 831 1038 831 891 
Q 831 666 1001 516 
Q 1172 366 1500 366 
Q 1825 366 2078 508 
Q 2331 650 2450 897 
Q 2541 1088 2541 1459 
L 2541 1666 
z
" transform="scale(0.015625)"/>
        <path id="ArialMT-6d" d="M 422 0 
L 422 3319 
L 925 3319 
L 925 2853 
Q 1081 3097 1340 3245 
Q 1600 3394 1931 3394 
Q 2300 3394 2536 3241 
Q 2772 3088 2869 2813 
Q 3263 3394 3894 3394 
Q 4388 3394 4653 3120 
Q 4919 2847 4919 2278 
L 4919 0 
L 4359 0 
L 4359 2091 
Q 4359 2428 4304 2576 
Q 4250 2725 4106 2815 
Q 3963 2906 3769 2906 
Q 3419 2906 3187 2673 
Q 2956 2441 2956 1928 
L 2956 0 
L 2394 0 
L 2394 2156 
Q 2394 2531 2256 2718 
Q 2119 2906 1806 2906 
Q 1569 2906 1367 2781 
Q 1166 2656 1075 2415 
Q 984 2175 984 1722 
L 984 0 
L 422 0 
z
" transform="scale(0.015625)"/>
       </defs>
       <use xlink:href="#ArialMT-54"/>
       <use xlink:href="#ArialMT-72" x="57.333984"/>
       <use xlink:href="#ArialMT-65" x="90.634766"/>
       <use xlink:href="#ArialMT-61" x="146.25"/>
       <use xlink:href="#ArialMT-74" x="201.865234"/>
       <use xlink:href="#ArialMT-6d" x="229.648438"/>
       <use xlink:href="#ArialMT-65" x="312.949219"/>
       <use xlink:href="#ArialMT-6e" x="368.564453"/>
       <use xlink:href="#ArialMT-74" x="424.179688"/>
      </g>
     </g>
    </g>
    <g id="text_3">
     <!-- Condition -->
     <g style="fill: #262626" transform="translate(138.475657 197.743125) scale(0.1 -0.1)">
      <defs>
       <path id="ArialMT-64" d="M 2575 0 
L 2575 419 
Q 2259 -75 1647 -75 
Q 1250 -75 917 144 
Q 584 363 401 755 
Q 219 1147 219 1656 
Q 219 2153 384 2558 
Q 550 2963 881 3178 
Q 1213 3394 1622 3394 
Q 1922 3394 2156 3267 
Q 2391 3141 2538 2938 
L 2538 4581 
L 3097 4581 
L 3097 0 
L 2575 0 
z
M 797 1656 
Q 797 1019 1065 703 
Q 1334 388 1700 388 
Q 2069 388 2326 689 
Q 2584 991 2584 1609 
Q 2584 2291 2321 2609 
Q 2059 2928 1675 2928 
Q 1300 2928 1048 2622 
Q 797 2316 797 1656 
z
" transform="scale(0.015625)"/>
       <path id="ArialMT-69" d="M 425 3934 
L 425 4581 
L 988 4581 
L 988 3934 
L 425 3934 
z
M 425 0 
L 425 3319 
L 988 3319 
L 988 0 
L 425 0 
z
" transform="scale(0.015625)"/>
      </defs>
      <use xlink:href="#ArialMT-43"/>
      <use xlink:href="#ArialMT-6f" x="72.216797"/>
      <use xlink:href="#ArialMT-6e" x="127.832031"/>
      <use xlink:href="#ArialMT-64" x="183.447266"/>
      <use xlink:href="#ArialMT-69" x="239.0625"/>
      <use xlink:href="#ArialMT-74" x="261.279297"/>
      <use xlink:href="#ArialMT-69" x="289.0625"/>
      <use xlink:href="#ArialMT-6f" x="311.279297"/>
      <use xlink:href="#ArialMT-6e" x="366.894531"/>
     </g>
    </g>
   </g>
   <g id="matplotlib.axis_2">
    <g id="ytick_1">
     <g id="line2d_3">
      <defs>
       <path id="mc138498d06" d="M 0 0 
L -3.5 0 
" style="stroke: #262626; stroke-width: 0.8"/>
      </defs>
      <g>
       <use xlink:href="#mc138498d06" x="47.145313" y="95.390217" style="fill: #262626; stroke: #262626; stroke-width: 0.8"/>
      </g>
     </g>
     <g id="text_4">
      <!-- $\mathdefault{10^{-1}}$ -->
      <g style="fill: #262626" transform="translate(20.345313 100.546467) scale(0.1 -0.1)">
       <defs>
        <path id="ArialMT-31" d="M 2384 0 
L 1822 0 
L 1822 3584 
Q 1619 3391 1289 3197 
Q 959 3003 697 2906 
L 697 3450 
Q 1169 3672 1522 3987 
Q 1875 4303 2022 4600 
L 2384 4600 
L 2384 0 
z
" transform="scale(0.015625)"/>
        <path id="ArialMT-30" d="M 266 2259 
Q 266 3072 433 3567 
Q 600 4063 929 4331 
Q 1259 4600 1759 4600 
Q 2128 4600 2406 4451 
Q 2684 4303 2865 4023 
Q 3047 3744 3150 3342 
Q 3253 2941 3253 2259 
Q 3253 1453 3087 958 
Q 2922 463 2592 192 
Q 2263 -78 1759 -78 
Q 1097 -78 719 397 
Q 266 969 266 2259 
z
M 844 2259 
Q 844 1131 1108 757 
Q 1372 384 1759 384 
Q 2147 384 2411 759 
Q 2675 1134 2675 2259 
Q 2675 3391 2411 3762 
Q 2147 4134 1753 4134 
Q 1366 4134 1134 3806 
Q 844 3388 844 2259 
z
" transform="scale(0.015625)"/>
        <path id="ArialMT-2212" d="M 3381 1997 
L 356 1997 
L 356 2522 
L 3381 2522 
L 3381 1997 
z
" transform="scale(0.015625)"/>
       </defs>
       <use xlink:href="#ArialMT-31" transform="translate(0 0.99375)"/>
       <use xlink:href="#ArialMT-30" transform="translate(55.615234 0.99375)"/>
       <use xlink:href="#ArialMT-2212" transform="translate(112.972813 70.6875) scale(0.7)"/>
       <use xlink:href="#ArialMT-31" transform="translate(153.851719 70.6875) scale(0.7)"/>
      </g>
     </g>
    </g>
    <g id="ytick_2">
     <g id="line2d_4">
      <defs>
       <path id="m57d874be40" d="M 0 0 
L -2 0 
" style="stroke: #262626; stroke-width: 0.6"/>
      </defs>
      <g>
       <use xlink:href="#m57d874be40" x="47.145313" y="166.626222" style="fill: #262626; stroke: #262626; stroke-width: 0.6"/>
      </g>
     </g>
    </g>
    <g id="ytick_3">
     <g id="line2d_5">
      <g>
       <use xlink:href="#m57d874be40" x="47.145313" y="149.604806" style="fill: #262626; stroke: #262626; stroke-width: 0.6"/>
      </g>
     </g>
    </g>
    <g id="ytick_4">
     <g id="line2d_6">
      <g>
       <use xlink:href="#m57d874be40" x="47.145313" y="136.401971" style="fill: #262626; stroke: #262626; stroke-width: 0.6"/>
      </g>
     </g>
    </g>
    <g id="ytick_5">
     <g id="line2d_7">
      <g>
       <use xlink:href="#m57d874be40" x="47.145313" y="125.614469" style="fill: #262626; stroke: #262626; stroke-width: 0.6"/>
      </g>
     </g>
    </g>
    <g id="ytick_6">
     <g id="line2d_8">
      <g>
       <use xlink:href="#m57d874be40" x="47.145313" y="116.493765" style="fill: #262626; stroke: #262626; stroke-width: 0.6"/>
      </g>
     </g>
    </g>
    <g id="ytick_7">
     <g id="line2d_9">
      <g>
       <use xlink:href="#m57d874be40" x="47.145313" y="108.593053" style="fill: #262626; stroke: #262626; stroke-width: 0.6"/>
      </g>
     </g>
    </g>
    <g id="ytick_8">
     <g id="line2d_10">
      <g>
       <use xlink:href="#m57d874be40" x="47.145313" y="101.624131" style="fill: #262626; stroke: #262626; stroke-width: 0.6"/>
      </g>
     </g>
    </g>
    <g id="ytick_9">
     <g id="line2d_11">
      <g>
       <use xlink:href="#m57d874be40" x="47.145313" y="54.378464" style="fill: #262626; stroke: #262626; stroke-width: 0.6"/>
      </g>
     </g>
    </g>
    <g id="ytick_10">
     <g id="line2d_12">
      <g>
       <use xlink:href="#m57d874be40" x="47.145313" y="30.388126" style="fill: #262626; stroke: #262626; stroke-width: 0.6"/>
      </g>
     </g>
    </g>
    <g id="ytick_11">
     <g id="line2d_13">
      <g>
       <use xlink:href="#m57d874be40" x="47.145313" y="13.36671" style="fill: #262626; stroke: #262626; stroke-width: 0.6"/>
      </g>
     </g>
    </g>
    <g id="text_5">
     <!-- Proportion -->
     <g style="fill: #262626" transform="translate(14.357813 111.887187) rotate(-90) scale(0.1 -0.1)">
      <defs>
       <path id="ArialMT-50" d="M 494 0 
L 494 4581 
L 2222 4581 
Q 2678 4581 2919 4538 
Q 3256 4481 3484 4323 
Q 3713 4166 3852 3881 
Q 3991 3597 3991 3256 
Q 3991 2672 3619 2267 
Q 3247 1863 2275 1863 
L 1100 1863 
L 1100 0 
L 494 0 
z
M 1100 2403 
L 2284 2403 
Q 2872 2403 3119 2622 
Q 3366 2841 3366 3238 
Q 3366 3525 3220 3729 
Q 3075 3934 2838 4000 
Q 2684 4041 2272 4041 
L 1100 4041 
L 1100 2403 
z
" transform="scale(0.015625)"/>
       <path id="ArialMT-70" d="M 422 -1272 
L 422 3319 
L 934 3319 
L 934 2888 
Q 1116 3141 1344 3267 
Q 1572 3394 1897 3394 
Q 2322 3394 2647 3175 
Q 2972 2956 3137 2557 
Q 3303 2159 3303 1684 
Q 3303 1175 3120 767 
Q 2938 359 2589 142 
Q 2241 -75 1856 -75 
Q 1575 -75 1351 44 
Q 1128 163 984 344 
L 984 -1272 
L 422 -1272 
z
M 931 1641 
Q 931 1000 1190 694 
Q 1450 388 1819 388 
Q 2194 388 2461 705 
Q 2728 1022 2728 1688 
Q 2728 2322 2467 2637 
Q 2206 2953 1844 2953 
Q 1484 2953 1207 2617 
Q 931 2281 931 1641 
z
" transform="scale(0.015625)"/>
      </defs>
      <use xlink:href="#ArialMT-50"/>
      <use xlink:href="#ArialMT-72" x="66.699219"/>
      <use xlink:href="#ArialMT-6f" x="100"/>
      <use xlink:href="#ArialMT-70" x="155.615234"/>
      <use xlink:href="#ArialMT-6f" x="211.230469"/>
      <use xlink:href="#ArialMT-72" x="266.845703"/>
      <use xlink:href="#ArialMT-74" x="300.146484"/>
      <use xlink:href="#ArialMT-69" x="327.929688"/>
      <use xlink:href="#ArialMT-6f" x="350.146484"/>
      <use xlink:href="#ArialMT-6e" x="405.761719"/>
     </g>
    </g>
   </g>
   <g id="patch_3">
    <path d="M 103.372594 136197.248739 
L 103.372594 136197.248739 
L 103.372594 136197.248739 
L 103.372594 136197.248739 
z
" clip-path="url(#pb3a371067c)" style="fill: #d43e5d; stroke: #242424; stroke-linejoin: miter"/>
   </g>
   <g id="patch_4">
    <path d="M 103.372594 136197.248739 
L 103.372594 136197.248739 
L 103.372594 136197.248739 
L 103.372594 136197.248739 
z
" clip-path="url(#pb3a371067c)" style="fill: #e5d070; stroke: #242424; stroke-linejoin: miter"/>
   </g>
   <g id="patch_5">
    <path d="M 103.372594 136197.248739 
L 103.372594 136197.248739 
L 103.372594 136197.248739 
L 103.372594 136197.248739 
z
" clip-path="url(#pb3a371067c)" style="fill: #3e6044; stroke: #242424; stroke-linejoin: miter"/>
   </g>
   <g id="patch_6">
    <path d="M 103.372594 136197.248739 
L 103.372594 136197.248739 
L 103.372594 136197.248739 
L 103.372594 136197.248739 
z
" clip-path="url(#pb3a371067c)" style="fill: #7493d5; stroke: #242424; stroke-linejoin: miter"/>
   </g>
   <g id="patch_7">
    <path d="M 103.372594 136197.248739 
L 103.372594 136197.248739 
L 103.372594 136197.248739 
L 103.372594 136197.248739 
z
" clip-path="url(#pb3a371067c)" style="fill: #312e49; stroke: #242424; stroke-linejoin: miter"/>
   </g>
   <g id="patch_8">
    <path d="M 58.390769 76.792018 
L 76.383499 76.792018 
L 76.383499 54.43086 
L 58.390769 54.43086 
L 58.390769 76.792018 
z
" clip-path="url(#pb3a371067c)" style="fill: #d43e5d; stroke: #242424; stroke-linejoin: miter"/>
   </g>
   <g id="line2d_14">
    <path d="M 67.387134 76.792018 
L 67.387134 80.197965 
" clip-path="url(#pb3a371067c)" style="fill: none; stroke: #242424"/>
   </g>
   <g id="line2d_15">
    <path d="M 67.387134 54.43086 
L 67.387134 50.563792 
" clip-path="url(#pb3a371067c)" style="fill: none; stroke: #242424"/>
   </g>
   <g id="line2d_16">
    <path d="M 62.888951 80.197965 
L 71.885316 80.197965 
" clip-path="url(#pb3a371067c)" style="fill: none; stroke: #242424; stroke-linecap: round"/>
   </g>
   <g id="line2d_17">
    <path d="M 62.888951 50.563792 
L 71.885316 50.563792 
" clip-path="url(#pb3a371067c)" style="fill: none; stroke: #242424; stroke-linecap: round"/>
   </g>
   <g id="line2d_18"/>
   <g id="patch_9">
    <path d="M 170.845332 155.220388 
L 188.838062 155.220388 
L 188.838062 122.483088 
L 170.845332 122.483088 
L 170.845332 155.220388 
z
" clip-path="url(#pb3a371067c)" style="fill: #d43e5d; stroke: #242424; stroke-linejoin: miter"/>
   </g>
   <g id="line2d_19">
    <path d="M 179.841697 155.220388 
L 179.841697 163.02 
" clip-path="url(#pb3a371067c)" style="fill: none; stroke: #242424"/>
   </g>
   <g id="line2d_20">
    <path d="M 179.841697 122.483088 
L 179.841697 104.563985 
" clip-path="url(#pb3a371067c)" style="fill: none; stroke: #242424"/>
   </g>
   <g id="line2d_21">
    <path d="M 175.343514 163.02 
L 184.339879 163.02 
" clip-path="url(#pb3a371067c)" style="fill: none; stroke: #242424; stroke-linecap: round"/>
   </g>
   <g id="line2d_22">
    <path d="M 175.343514 104.563985 
L 184.339879 104.563985 
" clip-path="url(#pb3a371067c)" style="fill: none; stroke: #242424; stroke-linecap: round"/>
   </g>
   <g id="line2d_23"/>
   <g id="patch_10">
    <path d="M 76.383499 93.726071 
L 94.376229 93.726071 
L 94.376229 52.617533 
L 76.383499 52.617533 
L 76.383499 93.726071 
z
" clip-path="url(#pb3a371067c)" style="fill: #e5d070; stroke: #242424; stroke-linejoin: miter"/>
   </g>
   <g id="line2d_24">
    <path d="M 85.379864 93.726071 
L 85.379864 97.687974 
" clip-path="url(#pb3a371067c)" style="fill: none; stroke: #242424"/>
   </g>
   <g id="line2d_25">
    <path d="M 85.379864 52.617533 
L 85.379864 48.082333 
" clip-path="url(#pb3a371067c)" style="fill: none; stroke: #242424"/>
   </g>
   <g id="line2d_26">
    <path d="M 80.881681 97.687974 
L 89.878046 97.687974 
" clip-path="url(#pb3a371067c)" style="fill: none; stroke: #242424; stroke-linecap: round"/>
   </g>
   <g id="line2d_27">
    <path d="M 80.881681 48.082333 
L 89.878046 48.082333 
" clip-path="url(#pb3a371067c)" style="fill: none; stroke: #242424; stroke-linecap: round"/>
   </g>
   <g id="line2d_28"/>
   <g id="patch_11">
    <path d="M 188.838062 148.932438 
L 206.830792 148.932438 
L 206.830792 96.16007 
L 188.838062 96.16007 
L 188.838062 148.932438 
z
" clip-path="url(#pb3a371067c)" style="fill: #e5d070; stroke: #242424; stroke-linejoin: miter"/>
   </g>
   <g id="line2d_29">
    <path d="M 197.834427 148.932438 
L 197.834427 150.648192 
" clip-path="url(#pb3a371067c)" style="fill: none; stroke: #242424"/>
   </g>
   <g id="line2d_30">
    <path d="M 197.834427 96.16007 
L 197.834427 95.622796 
" clip-path="url(#pb3a371067c)" style="fill: none; stroke: #242424"/>
   </g>
   <g id="line2d_31">
    <path d="M 193.336244 150.648192 
L 202.332609 150.648192 
" clip-path="url(#pb3a371067c)" style="fill: none; stroke: #242424; stroke-linecap: round"/>
   </g>
   <g id="line2d_32">
    <path d="M 193.336244 95.622796 
L 202.332609 95.622796 
" clip-path="url(#pb3a371067c)" style="fill: none; stroke: #242424; stroke-linecap: round"/>
   </g>
   <g id="line2d_33"/>
   <g id="patch_12">
    <path d="M 94.376229 76.049222 
L 112.368959 76.049222 
L 112.368959 37.296253 
L 94.376229 37.296253 
L 94.376229 76.049222 
z
" clip-path="url(#pb3a371067c)" style="fill: #3e6044; stroke: #242424; stroke-linejoin: miter"/>
   </g>
   <g id="line2d_34">
    <path d="M 103.372594 76.049222 
L 103.372594 78.538841 
" clip-path="url(#pb3a371067c)" style="fill: none; stroke: #242424"/>
   </g>
   <g id="line2d_35">
    <path d="M 103.372594 37.296253 
L 103.372594 28.589266 
" clip-path="url(#pb3a371067c)" style="fill: none; stroke: #242424"/>
   </g>
   <g id="line2d_36">
    <path d="M 98.874411 78.538841 
L 107.870777 78.538841 
" clip-path="url(#pb3a371067c)" style="fill: none; stroke: #242424; stroke-linecap: round"/>
   </g>
   <g id="line2d_37">
    <path d="M 98.874411 28.589266 
L 107.870777 28.589266 
" clip-path="url(#pb3a371067c)" style="fill: none; stroke: #242424; stroke-linecap: round"/>
   </g>
   <g id="line2d_38"/>
   <g id="patch_13">
    <path d="M 206.830792 65.61411 
L 224.823522 65.61411 
L 224.823522 42.038562 
L 206.830792 42.038562 
L 206.830792 65.61411 
z
" clip-path="url(#pb3a371067c)" style="fill: #3e6044; stroke: #242424; stroke-linejoin: miter"/>
   </g>
   <g id="line2d_39">
    <path d="M 215.827157 65.61411 
L 215.827157 67.095303 
" clip-path="url(#pb3a371067c)" style="fill: none; stroke: #242424"/>
   </g>
   <g id="line2d_40">
    <path d="M 215.827157 42.038562 
L 215.827157 41.471708 
" clip-path="url(#pb3a371067c)" style="fill: none; stroke: #242424"/>
   </g>
   <g id="line2d_41">
    <path d="M 211.328974 67.095303 
L 220.32534 67.095303 
" clip-path="url(#pb3a371067c)" style="fill: none; stroke: #242424; stroke-linecap: round"/>
   </g>
   <g id="line2d_42">
    <path d="M 211.328974 41.471708 
L 220.32534 41.471708 
" clip-path="url(#pb3a371067c)" style="fill: none; stroke: #242424; stroke-linecap: round"/>
   </g>
   <g id="line2d_43"/>
   <g id="patch_14">
    <path d="M 112.368959 61.088596 
L 130.361689 61.088596 
L 130.361689 36.360012 
L 112.368959 36.360012 
L 112.368959 61.088596 
z
" clip-path="url(#pb3a371067c)" style="fill: #7493d5; stroke: #242424; stroke-linejoin: miter"/>
   </g>
   <g id="line2d_44">
    <path d="M 121.365324 61.088596 
L 121.365324 67.183821 
" clip-path="url(#pb3a371067c)" style="fill: none; stroke: #242424"/>
   </g>
   <g id="line2d_45">
    <path d="M 121.365324 36.360012 
L 121.365324 30.885733 
" clip-path="url(#pb3a371067c)" style="fill: none; stroke: #242424"/>
   </g>
   <g id="line2d_46">
    <path d="M 116.867142 67.183821 
L 125.863507 67.183821 
" clip-path="url(#pb3a371067c)" style="fill: none; stroke: #242424; stroke-linecap: round"/>
   </g>
   <g id="line2d_47">
    <path d="M 116.867142 30.885733 
L 125.863507 30.885733 
" clip-path="url(#pb3a371067c)" style="fill: none; stroke: #242424; stroke-linecap: round"/>
   </g>
   <g id="line2d_48"/>
   <g id="patch_15">
    <path d="M 224.823522 32.712011 
L 242.816252 32.712011 
L 242.816252 21.807884 
L 224.823522 21.807884 
L 224.823522 32.712011 
z
" clip-path="url(#pb3a371067c)" style="fill: #7493d5; stroke: #242424; stroke-linejoin: miter"/>
   </g>
   <g id="line2d_49">
    <path d="M 233.819887 32.712011 
L 233.819887 52.806171 
" clip-path="url(#pb3a371067c)" style="fill: none; stroke: #242424"/>
   </g>
   <g id="line2d_50">
    <path d="M 233.819887 21.807884 
L 233.819887 20.532334 
" clip-path="url(#pb3a371067c)" style="fill: none; stroke: #242424"/>
   </g>
   <g id="line2d_51">
    <path d="M 229.321705 52.806171 
L 238.31807 52.806171 
" clip-path="url(#pb3a371067c)" style="fill: none; stroke: #242424; stroke-linecap: round"/>
   </g>
   <g id="line2d_52">
    <path d="M 229.321705 20.532334 
L 238.31807 20.532334 
" clip-path="url(#pb3a371067c)" style="fill: none; stroke: #242424; stroke-linecap: round"/>
   </g>
   <g id="line2d_53"/>
   <g id="patch_16">
    <path d="M 130.361689 54.536467 
L 148.354419 54.536467 
L 148.354419 38.699682 
L 130.361689 38.699682 
L 130.361689 54.536467 
z
" clip-path="url(#pb3a371067c)" style="fill: #312e49; stroke: #242424; stroke-linejoin: miter"/>
   </g>
   <g id="line2d_54">
    <path d="M 139.358054 54.536467 
L 139.358054 59.224365 
" clip-path="url(#pb3a371067c)" style="fill: none; stroke: #242424"/>
   </g>
   <g id="line2d_55">
    <path d="M 139.358054 38.699682 
L 139.358054 38.699682 
" clip-path="url(#pb3a371067c)" style="fill: none; stroke: #242424"/>
   </g>
   <g id="line2d_56">
    <path d="M 134.859872 59.224365 
L 143.856237 59.224365 
" clip-path="url(#pb3a371067c)" style="fill: none; stroke: #242424; stroke-linecap: round"/>
   </g>
   <g id="line2d_57">
    <path d="M 134.859872 38.699682 
L 143.856237 38.699682 
" clip-path="url(#pb3a371067c)" style="fill: none; stroke: #242424; stroke-linecap: round"/>
   </g>
   <g id="line2d_58">
    <defs>
     <path id="m40fb1ed7c9" d="M 0 3 
C 0.795609 3 1.55874 2.683901 2.12132 2.12132 
C 2.683901 1.55874 3 0.795609 3 0 
C 3 -0.795609 2.683901 -1.55874 2.12132 -2.12132 
C 1.55874 -2.683901 0.795609 -3 0 -3 
C -0.795609 -3 -1.55874 -2.683901 -2.12132 -2.12132 
C -2.683901 -1.55874 -3 -0.795609 -3 0 
C -3 0.795609 -2.683901 1.55874 -2.12132 2.12132 
C -1.55874 2.683901 -0.795609 3 0 3 
z
" style="stroke: #242424"/>
    </defs>
    <g clip-path="url(#pb3a371067c)">
     <use xlink:href="#m40fb1ed7c9" x="139.358054" y="18.405552" style="fill-opacity: 0; stroke: #242424"/>
    </g>
   </g>
   <g id="patch_17">
    <path d="M 242.816252 22.123027 
L 260.808982 22.123027 
L 260.808982 14.917064 
L 242.816252 14.917064 
L 242.816252 22.123027 
z
" clip-path="url(#pb3a371067c)" style="fill: #312e49; stroke: #242424; stroke-linejoin: miter"/>
   </g>
   <g id="line2d_59">
    <path d="M 251.812617 22.123027 
L 251.812617 22.823915 
" clip-path="url(#pb3a371067c)" style="fill: none; stroke: #242424"/>
   </g>
   <g id="line2d_60">
    <path d="M 251.812617 14.917064 
L 251.812617 14.62 
" clip-path="url(#pb3a371067c)" style="fill: none; stroke: #242424"/>
   </g>
   <g id="line2d_61">
    <path d="M 247.314435 22.823915 
L 256.3108 22.823915 
" clip-path="url(#pb3a371067c)" style="fill: none; stroke: #242424; stroke-linecap: round"/>
   </g>
   <g id="line2d_62">
    <path d="M 247.314435 14.62 
L 256.3108 14.62 
" clip-path="url(#pb3a371067c)" style="fill: none; stroke: #242424; stroke-linecap: round"/>
   </g>
   <g id="line2d_63"/>
   <g id="line2d_64">
    <path d="M 58.390769 71.936424 
L 76.383499 71.936424 
" clip-path="url(#pb3a371067c)" style="fill: none; stroke: #242424"/>
   </g>
   <g id="line2d_65">
    <path d="M 170.845332 145.064132 
L 188.838062 145.064132 
" clip-path="url(#pb3a371067c)" style="fill: none; stroke: #242424"/>
   </g>
   <g id="line2d_66">
    <path d="M 76.383499 91.48075 
L 94.376229 91.48075 
" clip-path="url(#pb3a371067c)" style="fill: none; stroke: #242424"/>
   </g>
   <g id="line2d_67">
    <path d="M 188.838062 111.740651 
L 206.830792 111.740651 
" clip-path="url(#pb3a371067c)" style="fill: none; stroke: #242424"/>
   </g>
   <g id="line2d_68">
    <path d="M 94.376229 72.722148 
L 112.368959 72.722148 
" clip-path="url(#pb3a371067c)" style="fill: none; stroke: #242424"/>
   </g>
   <g id="line2d_69">
    <path d="M 206.830792 60.897663 
L 224.823522 60.897663 
" clip-path="url(#pb3a371067c)" style="fill: none; stroke: #242424"/>
   </g>
   <g id="line2d_70">
    <path d="M 112.368959 37.376565 
L 130.361689 37.376565 
" clip-path="url(#pb3a371067c)" style="fill: none; stroke: #242424"/>
   </g>
   <g id="line2d_71">
    <path d="M 224.823522 23.718099 
L 242.816252 23.718099 
" clip-path="url(#pb3a371067c)" style="fill: none; stroke: #242424"/>
   </g>
   <g id="line2d_72">
    <path d="M 130.361689 39.665867 
L 148.354419 39.665867 
" clip-path="url(#pb3a371067c)" style="fill: none; stroke: #242424"/>
   </g>
   <g id="line2d_73">
    <path d="M 242.816252 15.361219 
L 260.808982 15.361219 
" clip-path="url(#pb3a371067c)" style="fill: none; stroke: #242424"/>
   </g>
   <g id="patch_18">
    <path d="M 47.145313 170.44 
L 47.145313 7.2 
" style="fill: none; stroke: #262626; stroke-width: 0.8; stroke-linejoin: miter; stroke-linecap: square"/>
   </g>
   <g id="patch_19">
    <path d="M 47.145313 170.44 
L 272.054438 170.44 
" style="fill: none; stroke: #262626; stroke-width: 0.8; stroke-linejoin: miter; stroke-linecap: square"/>
   </g>
   <g id="legend_1">
    <g id="patch_20">
     <path d="M 281.30353 93.2 
L 413.50353 93.2 
Q 415.50353 93.2 415.50353 91.2 
L 415.50353 14.2 
Q 415.50353 12.2 413.50353 12.2 
L 281.30353 12.2 
Q 279.30353 12.2 279.30353 14.2 
L 279.30353 91.2 
Q 279.30353 93.2 281.30353 93.2 
z
" style="fill: #ffffff; opacity: 0.8; stroke: #cccccc; stroke-linejoin: miter"/>
    </g>
    <g id="patch_21">
     <path d="M 283.30353 23.7 
L 303.30353 23.7 
L 303.30353 16.7 
L 283.30353 16.7 
z
" style="fill: #d43e5d; stroke: #242424; stroke-linejoin: miter"/>
    </g>
    <g id="text_6">
     <!-- Feature a: $p_{adj} &lt; 0.05$ -->
     <g style="fill: #262626" transform="translate(311.30353 23.7) scale(0.1 -0.1)">
      <defs>
       <path id="ArialMT-46" d="M 525 0 
L 525 4581 
L 3616 4581 
L 3616 4041 
L 1131 4041 
L 1131 2622 
L 3281 2622 
L 3281 2081 
L 1131 2081 
L 1131 0 
L 525 0 
z
" transform="scale(0.015625)"/>
       <path id="ArialMT-75" d="M 2597 0 
L 2597 488 
Q 2209 -75 1544 -75 
Q 1250 -75 995 37 
Q 741 150 617 320 
Q 494 491 444 738 
Q 409 903 409 1263 
L 409 3319 
L 972 3319 
L 972 1478 
Q 972 1038 1006 884 
Q 1059 663 1231 536 
Q 1403 409 1656 409 
Q 1909 409 2131 539 
Q 2353 669 2445 892 
Q 2538 1116 2538 1541 
L 2538 3319 
L 3100 3319 
L 3100 0 
L 2597 0 
z
" transform="scale(0.015625)"/>
       <path id="ArialMT-20" transform="scale(0.015625)"/>
       <path id="ArialMT-3a" d="M 578 2678 
L 578 3319 
L 1219 3319 
L 1219 2678 
L 578 2678 
z
M 578 0 
L 578 641 
L 1219 641 
L 1219 0 
L 578 0 
z
" transform="scale(0.015625)"/>
       <path id="DejaVuSans-Oblique-70" d="M 3175 2156 
Q 3175 2616 2975 2859 
Q 2775 3103 2400 3103 
Q 2144 3103 1911 2972 
Q 1678 2841 1497 2591 
Q 1319 2344 1212 1994 
Q 1106 1644 1106 1300 
Q 1106 863 1306 627 
Q 1506 391 1875 391 
Q 2147 391 2380 519 
Q 2613 647 2778 891 
Q 2956 1147 3065 1494 
Q 3175 1841 3175 2156 
z
M 1394 2969 
Q 1625 3272 1939 3428 
Q 2253 3584 2638 3584 
Q 3175 3584 3472 3232 
Q 3769 2881 3769 2247 
Q 3769 1728 3584 1258 
Q 3400 788 3053 416 
Q 2822 169 2531 39 
Q 2241 -91 1919 -91 
Q 1547 -91 1294 64 
Q 1041 219 916 525 
L 556 -1331 
L -19 -1331 
L 922 3500 
L 1497 3500 
L 1394 2969 
z
" transform="scale(0.015625)"/>
       <path id="DejaVuSans-Oblique-61" d="M 3438 1997 
L 3047 0 
L 2472 0 
L 2578 531 
Q 2325 219 2001 64 
Q 1678 -91 1281 -91 
Q 834 -91 548 182 
Q 263 456 263 884 
Q 263 1497 752 1853 
Q 1241 2209 2100 2209 
L 2900 2209 
L 2931 2363 
Q 2938 2388 2941 2417 
Q 2944 2447 2944 2509 
Q 2944 2788 2717 2942 
Q 2491 3097 2081 3097 
Q 1800 3097 1504 3025 
Q 1209 2953 897 2809 
L 997 3341 
Q 1322 3463 1633 3523 
Q 1944 3584 2234 3584 
Q 2853 3584 3176 3315 
Q 3500 3047 3500 2534 
Q 3500 2431 3484 2292 
Q 3469 2153 3438 1997 
z
M 2816 1759 
L 2241 1759 
Q 1534 1759 1195 1570 
Q 856 1381 856 984 
Q 856 709 1029 553 
Q 1203 397 1509 397 
Q 1978 397 2328 733 
Q 2678 1069 2791 1631 
L 2816 1759 
z
" transform="scale(0.015625)"/>
       <path id="DejaVuSans-Oblique-64" d="M 2675 525 
Q 2444 222 2128 65 
Q 1813 -91 1428 -91 
Q 903 -91 598 267 
Q 294 625 294 1247 
Q 294 1766 478 2236 
Q 663 2706 1013 3078 
Q 1244 3325 1534 3454 
Q 1825 3584 2144 3584 
Q 2481 3584 2739 3421 
Q 2997 3259 3138 2956 
L 3513 4863 
L 4091 4863 
L 3144 0 
L 2566 0 
L 2675 525 
z
M 891 1350 
Q 891 897 1095 644 
Q 1300 391 1663 391 
Q 1931 391 2161 520 
Q 2391 650 2566 903 
Q 2750 1166 2856 1509 
Q 2963 1853 2963 2188 
Q 2963 2622 2758 2865 
Q 2553 3109 2194 3109 
Q 1922 3109 1687 2981 
Q 1453 2853 1288 2613 
Q 1106 2353 998 2009 
Q 891 1666 891 1350 
z
" transform="scale(0.015625)"/>
       <path id="DejaVuSans-Oblique-6a" d="M 928 3500 
L 1503 3500 
L 813 -63 
L 809 -78 
Q 694 -675 544 -897 
Q 403 -1106 132 -1218 
Q -138 -1331 -506 -1331 
L -722 -1331 
L -628 -844 
L -481 -844 
Q -144 -844 -1 -703 
Q 141 -563 238 -63 
L 928 3500 
z
M 1197 4863 
L 1772 4863 
L 1631 4134 
L 1056 4134 
L 1197 4863 
z
" transform="scale(0.015625)"/>
       <path id="DejaVuSans-3c" d="M 4684 3150 
L 1459 2003 
L 4684 863 
L 4684 294 
L 678 1747 
L 678 2266 
L 4684 3719 
L 4684 3150 
z
" transform="scale(0.015625)"/>
       <path id="DejaVuSans-30" d="M 2034 4250 
Q 1547 4250 1301 3770 
Q 1056 3291 1056 2328 
Q 1056 1369 1301 889 
Q 1547 409 2034 409 
Q 2525 409 2770 889 
Q 3016 1369 3016 2328 
Q 3016 3291 2770 3770 
Q 2525 4250 2034 4250 
z
M 2034 4750 
Q 2819 4750 3233 4129 
Q 3647 3509 3647 2328 
Q 3647 1150 3233 529 
Q 2819 -91 2034 -91 
Q 1250 -91 836 529 
Q 422 1150 422 2328 
Q 422 3509 836 4129 
Q 1250 4750 2034 4750 
z
" transform="scale(0.015625)"/>
       <path id="DejaVuSans-2e" d="M 684 794 
L 1344 794 
L 1344 0 
L 684 0 
L 684 794 
z
" transform="scale(0.015625)"/>
       <path id="DejaVuSans-35" d="M 691 4666 
L 3169 4666 
L 3169 4134 
L 1269 4134 
L 1269 2991 
Q 1406 3038 1543 3061 
Q 1681 3084 1819 3084 
Q 2600 3084 3056 2656 
Q 3513 2228 3513 1497 
Q 3513 744 3044 326 
Q 2575 -91 1722 -91 
Q 1428 -91 1123 -41 
Q 819 9 494 109 
L 494 744 
Q 775 591 1075 516 
Q 1375 441 1709 441 
Q 2250 441 2565 725 
Q 2881 1009 2881 1497 
Q 2881 1984 2565 2268 
Q 2250 2553 1709 2553 
Q 1456 2553 1204 2497 
Q 953 2441 691 2322 
L 691 4666 
z
" transform="scale(0.015625)"/>
      </defs>
      <use xlink:href="#ArialMT-46" transform="translate(0 0.78125)"/>
      <use xlink:href="#ArialMT-65" transform="translate(61.083984 0.78125)"/>
      <use xlink:href="#ArialMT-61" transform="translate(116.699219 0.78125)"/>
      <use xlink:href="#ArialMT-74" transform="translate(172.314453 0.78125)"/>
      <use xlink:href="#ArialMT-75" transform="translate(200.097656 0.78125)"/>
      <use xlink:href="#ArialMT-72" transform="translate(255.712891 0.78125)"/>
      <use xlink:href="#ArialMT-65" transform="translate(289.013672 0.78125)"/>
      <use xlink:href="#ArialMT-20" transform="translate(344.628906 0.78125)"/>
      <use xlink:href="#ArialMT-61" transform="translate(372.412109 0.78125)"/>
      <use xlink:href="#ArialMT-3a" transform="translate(428.027344 0.78125)"/>
      <use xlink:href="#ArialMT-20" transform="translate(455.810547 0.78125)"/>
      <use xlink:href="#DejaVuSans-Oblique-70" transform="translate(483.59375 0.78125)"/>
      <use xlink:href="#DejaVuSans-Oblique-61" transform="translate(547.070312 -15.625) scale(0.7)"/>
      <use xlink:href="#DejaVuSans-Oblique-64" transform="translate(589.96582 -15.625) scale(0.7)"/>
      <use xlink:href="#DejaVuSans-Oblique-6a" transform="translate(634.399414 -15.625) scale(0.7)"/>
      <use xlink:href="#DejaVuSans-3c" transform="translate(676.064453 0.78125)"/>
      <use xlink:href="#DejaVuSans-30" transform="translate(779.335938 0.78125)"/>
      <use xlink:href="#DejaVuSans-2e" transform="translate(842.958984 0.78125)"/>
      <use xlink:href="#DejaVuSans-30" transform="translate(874.746094 0.78125)"/>
      <use xlink:href="#DejaVuSans-35" transform="translate(938.369141 0.78125)"/>
     </g>
    </g>
    <g id="patch_22">
     <path d="M 283.30353 39.3 
L 303.30353 39.3 
L 303.30353 32.3 
L 283.30353 32.3 
z
" style="fill: #e5d070; stroke: #242424; stroke-linejoin: miter"/>
    </g>
    <g id="text_7">
     <!-- Feature b: $p_{adj} &gt; 0.05$ -->
     <g style="fill: #262626" transform="translate(311.30353 39.3) scale(0.1 -0.1)">
      <defs>
       <path id="ArialMT-62" d="M 941 0 
L 419 0 
L 419 4581 
L 981 4581 
L 981 2947 
Q 1338 3394 1891 3394 
Q 2197 3394 2470 3270 
Q 2744 3147 2920 2923 
Q 3097 2700 3197 2384 
Q 3297 2069 3297 1709 
Q 3297 856 2875 390 
Q 2453 -75 1863 -75 
Q 1275 -75 941 416 
L 941 0 
z
M 934 1684 
Q 934 1088 1097 822 
Q 1363 388 1816 388 
Q 2184 388 2453 708 
Q 2722 1028 2722 1663 
Q 2722 2313 2464 2622 
Q 2206 2931 1841 2931 
Q 1472 2931 1203 2611 
Q 934 2291 934 1684 
z
" transform="scale(0.015625)"/>
       <path id="DejaVuSans-3e" d="M 678 3150 
L 678 3719 
L 4684 2266 
L 4684 1747 
L 678 294 
L 678 863 
L 3897 2003 
L 678 3150 
z
" transform="scale(0.015625)"/>
      </defs>
      <use xlink:href="#ArialMT-46" transform="translate(0 0.78125)"/>
      <use xlink:href="#ArialMT-65" transform="translate(61.083984 0.78125)"/>
      <use xlink:href="#ArialMT-61" transform="translate(116.699219 0.78125)"/>
      <use xlink:href="#ArialMT-74" transform="translate(172.314453 0.78125)"/>
      <use xlink:href="#ArialMT-75" transform="translate(200.097656 0.78125)"/>
      <use xlink:href="#ArialMT-72" transform="translate(255.712891 0.78125)"/>
      <use xlink:href="#ArialMT-65" transform="translate(289.013672 0.78125)"/>
      <use xlink:href="#ArialMT-20" transform="translate(344.628906 0.78125)"/>
      <use xlink:href="#ArialMT-62" transform="translate(372.412109 0.78125)"/>
      <use xlink:href="#ArialMT-3a" transform="translate(428.027344 0.78125)"/>
      <use xlink:href="#ArialMT-20" transform="translate(455.810547 0.78125)"/>
      <use xlink:href="#DejaVuSans-Oblique-70" transform="translate(483.59375 0.78125)"/>
      <use xlink:href="#DejaVuSans-Oblique-61" transform="translate(547.070312 -15.625) scale(0.7)"/>
      <use xlink:href="#DejaVuSans-Oblique-64" transform="translate(589.96582 -15.625) scale(0.7)"/>
      <use xlink:href="#DejaVuSans-Oblique-6a" transform="translate(634.399414 -15.625) scale(0.7)"/>
      <use xlink:href="#DejaVuSans-3e" transform="translate(676.064453 0.78125)"/>
      <use xlink:href="#DejaVuSans-30" transform="translate(779.335938 0.78125)"/>
      <use xlink:href="#DejaVuSans-2e" transform="translate(842.958984 0.78125)"/>
      <use xlink:href="#DejaVuSans-30" transform="translate(874.746094 0.78125)"/>
      <use xlink:href="#DejaVuSans-35" transform="translate(938.369141 0.78125)"/>
     </g>
    </g>
    <g id="patch_23">
     <path d="M 283.30353 54.9 
L 303.30353 54.9 
L 303.30353 47.9 
L 283.30353 47.9 
z
" style="fill: #3e6044; stroke: #242424; stroke-linejoin: miter"/>
    </g>
    <g id="text_8">
     <!-- Feature c: $p_{adj} &gt; 0.05$ -->
     <g style="fill: #262626" transform="translate(311.30353 54.9) scale(0.1 -0.1)">
      <defs>
       <path id="ArialMT-63" d="M 2588 1216 
L 3141 1144 
Q 3050 572 2676 248 
Q 2303 -75 1759 -75 
Q 1078 -75 664 370 
Q 250 816 250 1647 
Q 250 2184 428 2587 
Q 606 2991 970 3192 
Q 1334 3394 1763 3394 
Q 2303 3394 2647 3120 
Q 2991 2847 3088 2344 
L 2541 2259 
Q 2463 2594 2264 2762 
Q 2066 2931 1784 2931 
Q 1359 2931 1093 2626 
Q 828 2322 828 1663 
Q 828 994 1084 691 
Q 1341 388 1753 388 
Q 2084 388 2306 591 
Q 2528 794 2588 1216 
z
" transform="scale(0.015625)"/>
      </defs>
      <use xlink:href="#ArialMT-46" transform="translate(0 0.78125)"/>
      <use xlink:href="#ArialMT-65" transform="translate(61.083984 0.78125)"/>
      <use xlink:href="#ArialMT-61" transform="translate(116.699219 0.78125)"/>
      <use xlink:href="#ArialMT-74" transform="translate(172.314453 0.78125)"/>
      <use xlink:href="#ArialMT-75" transform="translate(200.097656 0.78125)"/>
      <use xlink:href="#ArialMT-72" transform="translate(255.712891 0.78125)"/>
      <use xlink:href="#ArialMT-65" transform="translate(289.013672 0.78125)"/>
      <use xlink:href="#ArialMT-20" transform="translate(344.628906 0.78125)"/>
      <use xlink:href="#ArialMT-63" transform="translate(372.412109 0.78125)"/>
      <use xlink:href="#ArialMT-3a" transform="translate(422.412109 0.78125)"/>
      <use xlink:href="#ArialMT-20" transform="translate(450.195312 0.78125)"/>
      <use xlink:href="#DejaVuSans-Oblique-70" transform="translate(477.978516 0.78125)"/>
      <use xlink:href="#DejaVuSans-Oblique-61" transform="translate(541.455078 -15.625) scale(0.7)"/>
      <use xlink:href="#DejaVuSans-Oblique-64" transform="translate(584.350586 -15.625) scale(0.7)"/>
      <use xlink:href="#DejaVuSans-Oblique-6a" transform="translate(628.78418 -15.625) scale(0.7)"/>
      <use xlink:href="#DejaVuSans-3e" transform="translate(670.449219 0.78125)"/>
      <use xlink:href="#DejaVuSans-30" transform="translate(773.720703 0.78125)"/>
      <use xlink:href="#DejaVuSans-2e" transform="translate(837.34375 0.78125)"/>
      <use xlink:href="#DejaVuSans-30" transform="translate(869.130859 0.78125)"/>
      <use xlink:href="#DejaVuSans-35" transform="translate(932.753906 0.78125)"/>
     </g>
    </g>
    <g id="patch_24">
     <path d="M 283.30353 70.5 
L 303.30353 70.5 
L 303.30353 63.5 
L 283.30353 63.5 
z
" style="fill: #7493d5; stroke: #242424; stroke-linejoin: miter"/>
    </g>
    <g id="text_9">
     <!-- Feature d: $p_{adj} &gt; 0.05$ -->
     <g style="fill: #262626" transform="translate(311.30353 70.5) scale(0.1 -0.1)">
      <use xlink:href="#ArialMT-46" transform="translate(0 0.78125)"/>
      <use xlink:href="#ArialMT-65" transform="translate(61.083984 0.78125)"/>
      <use xlink:href="#ArialMT-61" transform="translate(116.699219 0.78125)"/>
      <use xlink:href="#ArialMT-74" transform="translate(172.314453 0.78125)"/>
      <use xlink:href="#ArialMT-75" transform="translate(200.097656 0.78125)"/>
      <use xlink:href="#ArialMT-72" transform="translate(255.712891 0.78125)"/>
      <use xlink:href="#ArialMT-65" transform="translate(289.013672 0.78125)"/>
      <use xlink:href="#ArialMT-20" transform="translate(344.628906 0.78125)"/>
      <use xlink:href="#ArialMT-64" transform="translate(372.412109 0.78125)"/>
      <use xlink:href="#ArialMT-3a" transform="translate(428.027344 0.78125)"/>
      <use xlink:href="#ArialMT-20" transform="translate(455.810547 0.78125)"/>
      <use xlink:href="#DejaVuSans-Oblique-70" transform="translate(483.59375 0.78125)"/>
      <use xlink:href="#DejaVuSans-Oblique-61" transform="translate(547.070312 -15.625) scale(0.7)"/>
      <use xlink:href="#DejaVuSans-Oblique-64" transform="translate(589.96582 -15.625) scale(0.7)"/>
      <use xlink:href="#DejaVuSans-Oblique-6a" transform="translate(634.399414 -15.625) scale(0.7)"/>
      <use xlink:href="#DejaVuSans-3e" transform="translate(676.064453 0.78125)"/>
      <use xlink:href="#DejaVuSans-30" transform="translate(779.335938 0.78125)"/>
      <use xlink:href="#DejaVuSans-2e" transform="translate(842.958984 0.78125)"/>
      <use xlink:href="#DejaVuSans-30" transform="translate(874.746094 0.78125)"/>
      <use xlink:href="#DejaVuSans-35" transform="translate(938.369141 0.78125)"/>
     </g>
    </g>
    <g id="patch_25">
     <path d="M 283.30353 86.1 
L 303.30353 86.1 
L 303.30353 79.1 
L 283.30353 79.1 
z
" style="fill: #312e49; stroke: #242424; stroke-linejoin: miter"/>
    </g>
    <g id="text_10">
     <!-- Feature e: $p_{adj} &gt; 0.05$ -->
     <g style="fill: #262626" transform="translate(311.30353 86.1) scale(0.1 -0.1)">
      <use xlink:href="#ArialMT-46" transform="translate(0 0.78125)"/>
      <use xlink:href="#ArialMT-65" transform="translate(61.083984 0.78125)"/>
      <use xlink:href="#ArialMT-61" transform="translate(116.699219 0.78125)"/>
      <use xlink:href="#ArialMT-74" transform="translate(172.314453 0.78125)"/>
      <use xlink:href="#ArialMT-75" transform="translate(200.097656 0.78125)"/>
      <use xlink:href="#ArialMT-72" transform="translate(255.712891 0.78125)"/>
      <use xlink:href="#ArialMT-65" transform="translate(289.013672 0.78125)"/>
      <use xlink:href="#ArialMT-20" transform="translate(344.628906 0.78125)"/>
      <use xlink:href="#ArialMT-65" transform="translate(372.412109 0.78125)"/>
      <use xlink:href="#ArialMT-3a" transform="translate(428.027344 0.78125)"/>
      <use xlink:href="#ArialMT-20" transform="translate(455.810547 0.78125)"/>
      <use xlink:href="#DejaVuSans-Oblique-70" transform="translate(483.59375 0.78125)"/>
      <use xlink:href="#DejaVuSans-Oblique-61" transform="translate(547.070312 -15.625) scale(0.7)"/>
      <use xlink:href="#DejaVuSans-Oblique-64" transform="translate(589.96582 -15.625) scale(0.7)"/>
      <use xlink:href="#DejaVuSans-Oblique-6a" transform="translate(634.399414 -15.625) scale(0.7)"/>
      <use xlink:href="#DejaVuSans-3e" transform="translate(676.064453 0.78125)"/>
      <use xlink:href="#DejaVuSans-30" transform="translate(779.335938 0.78125)"/>
      <use xlink:href="#DejaVuSans-2e" transform="translate(842.958984 0.78125)"/>
      <use xlink:href="#DejaVuSans-30" transform="translate(874.746094 0.78125)"/>
      <use xlink:href="#DejaVuSans-35" transform="translate(938.369141 0.78125)"/>
     </g>
    </g>
   </g>
  </g>
 </g>
 <defs>
  <clipPath id="pb3a371067c">
   <rect x="47.145313" y="7.2" width="224.909126" height="163.24"/>
  </clipPath>
 </defs>
</svg>
